M48
;DRILL file {KiCad (5.0.2-5-10.14)} date Saturday, March 02, 2019 at 12:49:15 PM
;FORMAT={-:-/ absolute / inch / decimal}
FMAT,2
INCH,TZ
T1C0.0157
%
G90
G05
T1
X2.1Y-4.1
X2.1Y-4.45
X2.1Y-4.8
X2.1Y-5.15
X2.1Y-5.5
X2.1Y-5.85
X2.1Y-6.55
X2.1Y-6.9
X2.15Y-6.2
X2.4Y-6.4
X2.45Y-4.3
X2.45Y-4.65
X2.45Y-5.
X2.45Y-5.35
X2.45Y-5.7
X2.45Y-6.05
X2.45Y-6.75
X2.45Y-7.1
X2.9Y-4.1
X2.9Y-4.3
X2.9Y-4.45
X2.9Y-4.65
X2.9Y-4.8
X2.9Y-5.
X2.9Y-5.15
X2.9Y-5.35
X2.9Y-5.5
X2.9Y-5.7
X2.9Y-5.85
X2.9Y-6.05
X2.9Y-6.2
X2.9Y-6.4
X2.9Y-6.55
X2.9Y-6.75
X2.9Y-6.9
X2.9Y-7.1
X3.3Y-4.1
X3.3Y-4.5
X3.3Y-4.9
X3.3Y-5.3
X3.3Y-5.7
X3.3Y-6.1
X3.3Y-6.5
X3.3Y-6.9
X3.65Y-4.3
X3.65Y-4.7
X3.65Y-5.1
X3.65Y-5.5
X3.65Y-5.9
X3.65Y-6.3
X3.65Y-6.7
X3.65Y-7.1
X4.1Y-4.1
X4.1Y-4.3
X4.1Y-4.5
X4.1Y-4.7
X4.1Y-4.9
X4.1Y-5.1
X4.1Y-5.3
X4.1Y-5.5
X4.1Y-5.7
X4.1Y-5.9
X4.1Y-6.1
X4.1Y-6.3
X4.1Y-6.5
X4.1Y-6.7
X4.1Y-6.9
X4.1Y-7.1
X4.7Y-4.5
X4.7Y-5.3
X4.7Y-5.7
X4.7Y-6.5
X4.9Y-4.5
X4.9Y-4.95
X4.9Y-5.7
X4.9Y-6.15
X5.15Y-6.9
X5.9Y-6.9
X5.9Y-7.1
X6.45Y-6.9
X6.45Y-7.1
X6.75Y-4.45
X6.75Y-4.65
X6.75Y-6.15
X6.75Y-6.35
X6.9Y-4.65
X6.9Y-5.45
X6.95Y-6.9
X7.1Y-4.65
X7.1Y-5.1
X7.3Y-6.9
X7.3Y-7.1
X7.4Y-4.7
X7.4Y-5.5
X7.6Y-4.7
X7.6Y-5.15
X7.65Y-7.1
X8.15Y-6.9
X8.15Y-7.1
X8.65Y-6.9
X8.65Y-7.1
X9.15Y-6.9
X9.4Y-4.45
X9.4Y-4.65
X9.4Y-6.15
X9.4Y-6.35
X9.5Y-7.1
X9.55Y-5.35
X9.55Y-6.2
X9.75Y-5.35
X9.75Y-5.85
X10.85Y-5.05
X10.85Y-5.35
X10.85Y-5.9
X10.85Y-6.2
X12.25Y-5.05
X12.25Y-5.35
X12.25Y-5.95
X12.25Y-6.2
X13.35Y-4.1
X13.35Y-4.9
X13.35Y-5.3
X13.35Y-6.9
X13.4Y-4.5
X13.4Y-5.7
X13.4Y-6.1
X13.4Y-6.5
X13.7Y-4.3
X13.7Y-5.1
X13.7Y-5.5
X13.7Y-7.1
X13.75Y-4.7
X13.75Y-5.9
X13.75Y-6.3
X13.75Y-6.7
X14.05Y-6.9
X14.05Y-7.1
X14.1Y-4.1
X14.1Y-4.3
X14.15Y-4.9
X14.15Y-5.1
X14.15Y-5.3
X14.15Y-5.5
X14.2Y-4.5
X14.2Y-4.7
X14.2Y-5.7
X14.2Y-5.9
X14.2Y-6.1
X14.2Y-6.3
X14.2Y-6.5
X14.2Y-6.7
T0
M30
