G04 #@! TF.GenerationSoftware,KiCad,Pcbnew,(5.0.2-5-10.14)*
G04 #@! TF.CreationDate,2019-03-02T12:48:45-06:00*
G04 #@! TF.ProjectId,BackPanel,4261636b-5061-46e6-956c-2e6b69636164,rev?*
G04 #@! TF.SameCoordinates,Original*
G04 #@! TF.FileFunction,Soldermask,Top*
G04 #@! TF.FilePolarity,Negative*
%FSLAX46Y46*%
G04 Gerber Fmt 4.6, Leading zero omitted, Abs format (unit mm)*
G04 Created by KiCad (PCBNEW (5.0.2-5-10.14)) date Saturday, March 02, 2019 at 12:48:45 PM*
%MOMM*%
%LPD*%
G01*
G04 APERTURE LIST*
%ADD10C,0.100000*%
G04 APERTURE END LIST*
D10*
G36*
X232764193Y-174593134D02*
X232788024Y-174598835D01*
X232805051Y-174600000D01*
X233120000Y-174600000D01*
X233120000Y-174627163D01*
X233122402Y-174651549D01*
X233129515Y-174674998D01*
X233141066Y-174696609D01*
X233156612Y-174715551D01*
X233175554Y-174731097D01*
X233204142Y-174745297D01*
X239577552Y-176949634D01*
X239601384Y-176955335D01*
X239618410Y-176956500D01*
X239640687Y-176956500D01*
X239645789Y-176962217D01*
X239665358Y-176976966D01*
X239689588Y-176988383D01*
X239745000Y-177007548D01*
X239745000Y-177061489D01*
X239747402Y-177085875D01*
X239754515Y-177109324D01*
X239769026Y-177135173D01*
X242630535Y-181056500D01*
X234970452Y-181056500D01*
X234962118Y-181051592D01*
X234938983Y-181043515D01*
X234909547Y-181040000D01*
X232689399Y-181040000D01*
X232665013Y-181042402D01*
X232648541Y-181046866D01*
X232626889Y-181054355D01*
X232617835Y-181049515D01*
X232594386Y-181042402D01*
X232570000Y-181040000D01*
X218995000Y-181040000D01*
X218995000Y-179547951D01*
X218997598Y-179539386D01*
X219000000Y-179515000D01*
X219000000Y-174600000D01*
X232570000Y-174600000D01*
X232594386Y-174597598D01*
X232617835Y-174590485D01*
X232639446Y-174578934D01*
X232658388Y-174563388D01*
X232662766Y-174558054D01*
X232764193Y-174593134D01*
X232764193Y-174593134D01*
G37*
G36*
X176884193Y-174593134D02*
X176908024Y-174598835D01*
X176925051Y-174600000D01*
X177240000Y-174600000D01*
X177240000Y-174627163D01*
X177242402Y-174651549D01*
X177249515Y-174674998D01*
X177261066Y-174696609D01*
X177276612Y-174715551D01*
X177295554Y-174731097D01*
X177324142Y-174745297D01*
X183697552Y-176949634D01*
X183721384Y-176955335D01*
X183738410Y-176956500D01*
X183760687Y-176956500D01*
X183765789Y-176962217D01*
X183785358Y-176976966D01*
X183809588Y-176988383D01*
X183865000Y-177007548D01*
X183865000Y-177061489D01*
X183867402Y-177085875D01*
X183874515Y-177109324D01*
X183889026Y-177135173D01*
X186750535Y-181056500D01*
X179090452Y-181056500D01*
X179082118Y-181051592D01*
X179058983Y-181043515D01*
X179029547Y-181040000D01*
X176809399Y-181040000D01*
X176785013Y-181042402D01*
X176768541Y-181046866D01*
X176746889Y-181054355D01*
X176737835Y-181049515D01*
X176714386Y-181042402D01*
X176690000Y-181040000D01*
X163115000Y-181040000D01*
X163115000Y-179547951D01*
X163117598Y-179539386D01*
X163120000Y-179515000D01*
X163120000Y-174600000D01*
X176690000Y-174600000D01*
X176714386Y-174597598D01*
X176737835Y-174590485D01*
X176759446Y-174578934D01*
X176778388Y-174563388D01*
X176782766Y-174558054D01*
X176884193Y-174593134D01*
X176884193Y-174593134D01*
G37*
G36*
X59677882Y-174548408D02*
X59701017Y-174556485D01*
X59730453Y-174560000D01*
X61950601Y-174560000D01*
X61974987Y-174557598D01*
X61991459Y-174553134D01*
X62013111Y-174545645D01*
X62022165Y-174550485D01*
X62045614Y-174557598D01*
X62070000Y-174560000D01*
X75645000Y-174560000D01*
X75645000Y-176052049D01*
X75642402Y-176060614D01*
X75640000Y-176085000D01*
X75640000Y-181000000D01*
X62070000Y-181000000D01*
X62045614Y-181002402D01*
X62022165Y-181009515D01*
X62000554Y-181021066D01*
X61981612Y-181036612D01*
X61977234Y-181041946D01*
X61875807Y-181006866D01*
X61851976Y-181001165D01*
X61834949Y-181000000D01*
X61520000Y-181000000D01*
X61520000Y-180972837D01*
X61517598Y-180948451D01*
X61510485Y-180925002D01*
X61498934Y-180903391D01*
X61483388Y-180884449D01*
X61464446Y-180868903D01*
X61435858Y-180854703D01*
X55062448Y-178650366D01*
X55038616Y-178644665D01*
X55021590Y-178643500D01*
X54999313Y-178643500D01*
X54994211Y-178637783D01*
X54974642Y-178623034D01*
X54950412Y-178611617D01*
X54895000Y-178592452D01*
X54895000Y-178538511D01*
X54892598Y-178514125D01*
X54885485Y-178490676D01*
X54870974Y-178464827D01*
X53864712Y-177085875D01*
X52009465Y-174543500D01*
X59669548Y-174543500D01*
X59677882Y-174548408D01*
X59677882Y-174548408D01*
G37*
G36*
X90157882Y-174548408D02*
X90181017Y-174556485D01*
X90210453Y-174560000D01*
X92430601Y-174560000D01*
X92454987Y-174557598D01*
X92471459Y-174553134D01*
X92493111Y-174545645D01*
X92502165Y-174550485D01*
X92525614Y-174557598D01*
X92550000Y-174560000D01*
X106125000Y-174560000D01*
X106125000Y-176052049D01*
X106122402Y-176060614D01*
X106120000Y-176085000D01*
X106120000Y-181000000D01*
X92550000Y-181000000D01*
X92525614Y-181002402D01*
X92502165Y-181009515D01*
X92480554Y-181021066D01*
X92461612Y-181036612D01*
X92457234Y-181041946D01*
X92355807Y-181006866D01*
X92331976Y-181001165D01*
X92314949Y-181000000D01*
X92000000Y-181000000D01*
X92000000Y-180972837D01*
X91997598Y-180948451D01*
X91990485Y-180925002D01*
X91978934Y-180903391D01*
X91963388Y-180884449D01*
X91944446Y-180868903D01*
X91915858Y-180854703D01*
X85542448Y-178650366D01*
X85518616Y-178644665D01*
X85501590Y-178643500D01*
X85479313Y-178643500D01*
X85474211Y-178637783D01*
X85454642Y-178623034D01*
X85430412Y-178611617D01*
X85375000Y-178592452D01*
X85375000Y-178538511D01*
X85372598Y-178514125D01*
X85365485Y-178490676D01*
X85350974Y-178464827D01*
X84344712Y-177085875D01*
X82489465Y-174543500D01*
X90149548Y-174543500D01*
X90157882Y-174548408D01*
X90157882Y-174548408D01*
G37*
G36*
X191757882Y-174548408D02*
X191781017Y-174556485D01*
X191810453Y-174560000D01*
X194030601Y-174560000D01*
X194054987Y-174557598D01*
X194071459Y-174553134D01*
X194093111Y-174545645D01*
X194102165Y-174550485D01*
X194125614Y-174557598D01*
X194150000Y-174560000D01*
X207725000Y-174560000D01*
X207725000Y-176052049D01*
X207722402Y-176060614D01*
X207720000Y-176085000D01*
X207720000Y-181000000D01*
X194150000Y-181000000D01*
X194125614Y-181002402D01*
X194102165Y-181009515D01*
X194080554Y-181021066D01*
X194061612Y-181036612D01*
X194057234Y-181041946D01*
X193955807Y-181006866D01*
X193931976Y-181001165D01*
X193914949Y-181000000D01*
X193600000Y-181000000D01*
X193600000Y-180972837D01*
X193597598Y-180948451D01*
X193590485Y-180925002D01*
X193578934Y-180903391D01*
X193563388Y-180884449D01*
X193544446Y-180868903D01*
X193515858Y-180854703D01*
X187142448Y-178650366D01*
X187118616Y-178644665D01*
X187101590Y-178643500D01*
X187079313Y-178643500D01*
X187074211Y-178637783D01*
X187054642Y-178623034D01*
X187030412Y-178611617D01*
X186975000Y-178592452D01*
X186975000Y-178538511D01*
X186972598Y-178514125D01*
X186965485Y-178490676D01*
X186950974Y-178464827D01*
X185944712Y-177085875D01*
X184089465Y-174543500D01*
X191749548Y-174543500D01*
X191757882Y-174548408D01*
X191757882Y-174548408D01*
G37*
G36*
X111174000Y-181000000D02*
X107774000Y-181000000D01*
X107774000Y-174600000D01*
X111174000Y-174600000D01*
X111174000Y-181000000D01*
X111174000Y-181000000D01*
G37*
G36*
X80694000Y-181000000D02*
X77294000Y-181000000D01*
X77294000Y-174600000D01*
X80694000Y-174600000D01*
X80694000Y-181000000D01*
X80694000Y-181000000D01*
G37*
G36*
X161466000Y-181000000D02*
X158066000Y-181000000D01*
X158066000Y-174600000D01*
X161466000Y-174600000D01*
X161466000Y-181000000D01*
X161466000Y-181000000D01*
G37*
G36*
X212774000Y-181000000D02*
X209374000Y-181000000D01*
X209374000Y-174600000D01*
X212774000Y-174600000D01*
X212774000Y-181000000D01*
X212774000Y-181000000D01*
G37*
G36*
X217346000Y-181000000D02*
X213946000Y-181000000D01*
X213946000Y-174600000D01*
X217346000Y-174600000D01*
X217346000Y-181000000D01*
X217346000Y-181000000D01*
G37*
G36*
X135877882Y-174294408D02*
X135901017Y-174302485D01*
X135930453Y-174306000D01*
X138150601Y-174306000D01*
X138174987Y-174303598D01*
X138191459Y-174299134D01*
X138213111Y-174291645D01*
X138222165Y-174296485D01*
X138245614Y-174303598D01*
X138270000Y-174306000D01*
X151845000Y-174306000D01*
X151845000Y-175798049D01*
X151842402Y-175806614D01*
X151840000Y-175831000D01*
X151840000Y-180746000D01*
X138270000Y-180746000D01*
X138245614Y-180748402D01*
X138222165Y-180755515D01*
X138200554Y-180767066D01*
X138181612Y-180782612D01*
X138177234Y-180787946D01*
X138075807Y-180752866D01*
X138051976Y-180747165D01*
X138034949Y-180746000D01*
X137720000Y-180746000D01*
X137720000Y-180718837D01*
X137717598Y-180694451D01*
X137710485Y-180671002D01*
X137698934Y-180649391D01*
X137683388Y-180630449D01*
X137664446Y-180614903D01*
X137635858Y-180600703D01*
X131262448Y-178396366D01*
X131238616Y-178390665D01*
X131221590Y-178389500D01*
X131199313Y-178389500D01*
X131194211Y-178383783D01*
X131174642Y-178369034D01*
X131150412Y-178357617D01*
X131095000Y-178338452D01*
X131095000Y-178284511D01*
X131092598Y-178260125D01*
X131085485Y-178236676D01*
X131070974Y-178210827D01*
X128209465Y-174289500D01*
X135869548Y-174289500D01*
X135877882Y-174294408D01*
X135877882Y-174294408D01*
G37*
G36*
X342887882Y-174294408D02*
X342911017Y-174302485D01*
X342940453Y-174306000D01*
X345160601Y-174306000D01*
X345184987Y-174303598D01*
X345201459Y-174299134D01*
X345223111Y-174291645D01*
X345232165Y-174296485D01*
X345255614Y-174303598D01*
X345280000Y-174306000D01*
X358855000Y-174306000D01*
X358855000Y-175798049D01*
X358852402Y-175806614D01*
X358850000Y-175831000D01*
X358850000Y-180746000D01*
X345280000Y-180746000D01*
X345255614Y-180748402D01*
X345232165Y-180755515D01*
X345210554Y-180767066D01*
X345191612Y-180782612D01*
X345187234Y-180787946D01*
X345085807Y-180752866D01*
X345061976Y-180747165D01*
X345044949Y-180746000D01*
X344730000Y-180746000D01*
X344730000Y-180718837D01*
X344727598Y-180694451D01*
X344720485Y-180671002D01*
X344708934Y-180649391D01*
X344693388Y-180630449D01*
X344674446Y-180614903D01*
X344645858Y-180600703D01*
X338272448Y-178396366D01*
X338248616Y-178390665D01*
X338231590Y-178389500D01*
X338209313Y-178389500D01*
X338204211Y-178383783D01*
X338184642Y-178369034D01*
X338160412Y-178357617D01*
X338105000Y-178338452D01*
X338105000Y-178284511D01*
X338102598Y-178260125D01*
X338095485Y-178236676D01*
X338080974Y-178210827D01*
X335219465Y-174289500D01*
X342879548Y-174289500D01*
X342887882Y-174294408D01*
X342887882Y-174294408D01*
G37*
G36*
X363904000Y-180746000D02*
X360504000Y-180746000D01*
X360504000Y-174346000D01*
X363904000Y-174346000D01*
X363904000Y-180746000D01*
X363904000Y-180746000D01*
G37*
G36*
X156894000Y-180746000D02*
X153494000Y-180746000D01*
X153494000Y-174346000D01*
X156894000Y-174346000D01*
X156894000Y-180746000D01*
X156894000Y-180746000D01*
G37*
G36*
X59677882Y-165658408D02*
X59701017Y-165666485D01*
X59730453Y-165670000D01*
X61950601Y-165670000D01*
X61974987Y-165667598D01*
X61991459Y-165663134D01*
X62013111Y-165655645D01*
X62022165Y-165660485D01*
X62045614Y-165667598D01*
X62070000Y-165670000D01*
X75645000Y-165670000D01*
X75645000Y-167162049D01*
X75642402Y-167170614D01*
X75640000Y-167195000D01*
X75640000Y-172110000D01*
X62070000Y-172110000D01*
X62045614Y-172112402D01*
X62022165Y-172119515D01*
X62000554Y-172131066D01*
X61981612Y-172146612D01*
X61977234Y-172151946D01*
X61875807Y-172116866D01*
X61851976Y-172111165D01*
X61834949Y-172110000D01*
X61520000Y-172110000D01*
X61520000Y-172082837D01*
X61517598Y-172058451D01*
X61510485Y-172035002D01*
X61498934Y-172013391D01*
X61483388Y-171994449D01*
X61464446Y-171978903D01*
X61435858Y-171964703D01*
X55062448Y-169760366D01*
X55038616Y-169754665D01*
X55021590Y-169753500D01*
X54999313Y-169753500D01*
X54994211Y-169747783D01*
X54974642Y-169733034D01*
X54950412Y-169721617D01*
X54895000Y-169702452D01*
X54895000Y-169648511D01*
X54892598Y-169624125D01*
X54885485Y-169600676D01*
X54870974Y-169574827D01*
X54079611Y-168490366D01*
X52009465Y-165653500D01*
X59669548Y-165653500D01*
X59677882Y-165658408D01*
X59677882Y-165658408D01*
G37*
G36*
X80694000Y-172110000D02*
X77294000Y-172110000D01*
X77294000Y-165710000D01*
X80694000Y-165710000D01*
X80694000Y-172110000D01*
X80694000Y-172110000D01*
G37*
G36*
X346697882Y-164388408D02*
X346721017Y-164396485D01*
X346750453Y-164400000D01*
X348970601Y-164400000D01*
X348994987Y-164397598D01*
X349011459Y-164393134D01*
X349033111Y-164385645D01*
X349042165Y-164390485D01*
X349065614Y-164397598D01*
X349090000Y-164400000D01*
X362665000Y-164400000D01*
X362665000Y-165892049D01*
X362662402Y-165900614D01*
X362660000Y-165925000D01*
X362660000Y-170840000D01*
X349090000Y-170840000D01*
X349065614Y-170842402D01*
X349042165Y-170849515D01*
X349020554Y-170861066D01*
X349001612Y-170876612D01*
X348997234Y-170881946D01*
X348895807Y-170846866D01*
X348871976Y-170841165D01*
X348854949Y-170840000D01*
X348540000Y-170840000D01*
X348540000Y-170812837D01*
X348537598Y-170788451D01*
X348530485Y-170765002D01*
X348518934Y-170743391D01*
X348503388Y-170724449D01*
X348484446Y-170708903D01*
X348455858Y-170694703D01*
X342082448Y-168490366D01*
X342058616Y-168484665D01*
X342041590Y-168483500D01*
X342019313Y-168483500D01*
X342014211Y-168477783D01*
X341994642Y-168463034D01*
X341970412Y-168451617D01*
X341915000Y-168432452D01*
X341915000Y-168378511D01*
X341912598Y-168354125D01*
X341905485Y-168330676D01*
X341890974Y-168304827D01*
X341755039Y-168118546D01*
X339029465Y-164383500D01*
X346689548Y-164383500D01*
X346697882Y-164388408D01*
X346697882Y-164388408D01*
G37*
G36*
X367714000Y-170840000D02*
X364314000Y-170840000D01*
X364314000Y-164440000D01*
X367714000Y-164440000D01*
X367714000Y-170840000D01*
X367714000Y-170840000D01*
G37*
G36*
X90157882Y-164134408D02*
X90181017Y-164142485D01*
X90210453Y-164146000D01*
X92430601Y-164146000D01*
X92454987Y-164143598D01*
X92471459Y-164139134D01*
X92493111Y-164131645D01*
X92502165Y-164136485D01*
X92525614Y-164143598D01*
X92550000Y-164146000D01*
X106125000Y-164146000D01*
X106125000Y-165638049D01*
X106122402Y-165646614D01*
X106120000Y-165671000D01*
X106120000Y-170586000D01*
X92550000Y-170586000D01*
X92525614Y-170588402D01*
X92502165Y-170595515D01*
X92480554Y-170607066D01*
X92461612Y-170622612D01*
X92457234Y-170627946D01*
X92355807Y-170592866D01*
X92331976Y-170587165D01*
X92314949Y-170586000D01*
X92000000Y-170586000D01*
X92000000Y-170558837D01*
X91997598Y-170534451D01*
X91990485Y-170511002D01*
X91978934Y-170489391D01*
X91963388Y-170470449D01*
X91944446Y-170454903D01*
X91915858Y-170440703D01*
X85542448Y-168236366D01*
X85518616Y-168230665D01*
X85501590Y-168229500D01*
X85479313Y-168229500D01*
X85474211Y-168223783D01*
X85454642Y-168209034D01*
X85430412Y-168197617D01*
X85375000Y-168178452D01*
X85375000Y-168124511D01*
X85372598Y-168100125D01*
X85365485Y-168076676D01*
X85350974Y-168050827D01*
X84726452Y-167195000D01*
X82489465Y-164129500D01*
X90149548Y-164129500D01*
X90157882Y-164134408D01*
X90157882Y-164134408D01*
G37*
G36*
X111174000Y-170586000D02*
X107774000Y-170586000D01*
X107774000Y-164186000D01*
X111174000Y-164186000D01*
X111174000Y-170586000D01*
X111174000Y-170586000D01*
G37*
G36*
X267896635Y-157141454D02*
X268436693Y-157305278D01*
X268702729Y-157447478D01*
X268934409Y-157571314D01*
X268934411Y-157571315D01*
X268934410Y-157571315D01*
X269370663Y-157929337D01*
X269650722Y-158270591D01*
X269728686Y-158365590D01*
X269852522Y-158597270D01*
X269994722Y-158863306D01*
X270158546Y-159403364D01*
X270200000Y-159824254D01*
X270200000Y-165435746D01*
X270158546Y-165856636D01*
X269994722Y-166396694D01*
X269976634Y-166430534D01*
X269728686Y-166894410D01*
X269370663Y-167330663D01*
X268934410Y-167688686D01*
X268702730Y-167812522D01*
X268436694Y-167954722D01*
X267896636Y-168118546D01*
X267335000Y-168173862D01*
X266773365Y-168118546D01*
X266233307Y-167954722D01*
X265967271Y-167812522D01*
X265735591Y-167688686D01*
X265299338Y-167330663D01*
X264941315Y-166894410D01*
X264693367Y-166430534D01*
X264675279Y-166396694D01*
X264511455Y-165856636D01*
X264470001Y-165435746D01*
X264470000Y-159824255D01*
X264511454Y-159403365D01*
X264675278Y-158863307D01*
X264941315Y-158365590D01*
X265299337Y-157929337D01*
X265735589Y-157571315D01*
X265735588Y-157571315D01*
X265735590Y-157571314D01*
X265967270Y-157447478D01*
X266233306Y-157305278D01*
X266773364Y-157141454D01*
X267335000Y-157086138D01*
X267896635Y-157141454D01*
X267896635Y-157141454D01*
G37*
G36*
X294666635Y-157046454D02*
X295206693Y-157210278D01*
X295384424Y-157305278D01*
X295704409Y-157476314D01*
X295704411Y-157476315D01*
X295704410Y-157476315D01*
X296140663Y-157834337D01*
X296395475Y-158144827D01*
X296498686Y-158270590D01*
X296549465Y-158365591D01*
X296764722Y-158768306D01*
X296928546Y-159308364D01*
X296970000Y-159729254D01*
X296970000Y-165340746D01*
X296928546Y-165761636D01*
X296764722Y-166301694D01*
X296622522Y-166567730D01*
X296498686Y-166799410D01*
X296140663Y-167235663D01*
X295704410Y-167593686D01*
X295526680Y-167688685D01*
X295206694Y-167859722D01*
X294666636Y-168023546D01*
X294105000Y-168078862D01*
X293543365Y-168023546D01*
X293003307Y-167859722D01*
X292683321Y-167688685D01*
X292505591Y-167593686D01*
X292069338Y-167235663D01*
X291711315Y-166799410D01*
X291587479Y-166567730D01*
X291445279Y-166301694D01*
X291281455Y-165761636D01*
X291240001Y-165340746D01*
X291240000Y-159729255D01*
X291281454Y-159308365D01*
X291445278Y-158768307D01*
X291587478Y-158502271D01*
X291711314Y-158270591D01*
X291827164Y-158129427D01*
X292069337Y-157834337D01*
X292505589Y-157476315D01*
X292505588Y-157476315D01*
X292505590Y-157476314D01*
X292825575Y-157305278D01*
X293003306Y-157210278D01*
X293543364Y-157046454D01*
X294105000Y-156991138D01*
X294666635Y-157046454D01*
X294666635Y-157046454D01*
G37*
G36*
X321214635Y-157027454D02*
X321754693Y-157191278D01*
X322020729Y-157333478D01*
X322252409Y-157457314D01*
X322275562Y-157476315D01*
X322688663Y-157815337D01*
X322946429Y-158129427D01*
X323046686Y-158251590D01*
X323107620Y-158365589D01*
X323312722Y-158749306D01*
X323476546Y-159289364D01*
X323518000Y-159710254D01*
X323518000Y-165321746D01*
X323476546Y-165742636D01*
X323312722Y-166282694D01*
X323251788Y-166396693D01*
X323046686Y-166780410D01*
X322688663Y-167216663D01*
X322252410Y-167574686D01*
X322039133Y-167688685D01*
X321754694Y-167840722D01*
X321214636Y-168004546D01*
X320653000Y-168059862D01*
X320091365Y-168004546D01*
X319551307Y-167840722D01*
X319266868Y-167688685D01*
X319053591Y-167574686D01*
X318617338Y-167216663D01*
X318259315Y-166780410D01*
X318054213Y-166396693D01*
X317993279Y-166282694D01*
X317829455Y-165742636D01*
X317788001Y-165321746D01*
X317788000Y-159710255D01*
X317829454Y-159289365D01*
X317993278Y-158749307D01*
X318223934Y-158317783D01*
X318259314Y-158251591D01*
X318359571Y-158129427D01*
X318617337Y-157815337D01*
X319030437Y-157476315D01*
X319053590Y-157457314D01*
X319285270Y-157333478D01*
X319551306Y-157191278D01*
X320091364Y-157027454D01*
X320653000Y-156972138D01*
X321214635Y-157027454D01*
X321214635Y-157027454D01*
G37*
G36*
X120180614Y-142797598D02*
X120205000Y-142800000D01*
X125120000Y-142800000D01*
X125120000Y-156370000D01*
X125122402Y-156394386D01*
X125129515Y-156417835D01*
X125141066Y-156439446D01*
X125156612Y-156458388D01*
X125161946Y-156462766D01*
X125126866Y-156564193D01*
X125121165Y-156588024D01*
X125120000Y-156605051D01*
X125120000Y-156920000D01*
X125092837Y-156920000D01*
X125068451Y-156922402D01*
X125045002Y-156929515D01*
X125023391Y-156941066D01*
X125004449Y-156956612D01*
X124988903Y-156975554D01*
X124974703Y-157004142D01*
X122770366Y-163377552D01*
X122764665Y-163401384D01*
X122763500Y-163418410D01*
X122763500Y-163440687D01*
X122757783Y-163445789D01*
X122743034Y-163465358D01*
X122731617Y-163489588D01*
X122712452Y-163545000D01*
X122658511Y-163545000D01*
X122634125Y-163547402D01*
X122610676Y-163554515D01*
X122584827Y-163569026D01*
X118663500Y-166430535D01*
X118663500Y-158770452D01*
X118668408Y-158762118D01*
X118676485Y-158738983D01*
X118680000Y-158709547D01*
X118680000Y-156489399D01*
X118677598Y-156465013D01*
X118673134Y-156448541D01*
X118665645Y-156426889D01*
X118670485Y-156417835D01*
X118677598Y-156394386D01*
X118680000Y-156370000D01*
X118680000Y-142795000D01*
X120172049Y-142795000D01*
X120180614Y-142797598D01*
X120180614Y-142797598D01*
G37*
G36*
X59677882Y-156768408D02*
X59701017Y-156776485D01*
X59730453Y-156780000D01*
X61950601Y-156780000D01*
X61974987Y-156777598D01*
X61991459Y-156773134D01*
X62013111Y-156765645D01*
X62022165Y-156770485D01*
X62045614Y-156777598D01*
X62070000Y-156780000D01*
X75645000Y-156780000D01*
X75645000Y-158272049D01*
X75642402Y-158280614D01*
X75640000Y-158305000D01*
X75640000Y-163220000D01*
X62070000Y-163220000D01*
X62045614Y-163222402D01*
X62022165Y-163229515D01*
X62000554Y-163241066D01*
X61981612Y-163256612D01*
X61977234Y-163261946D01*
X61875807Y-163226866D01*
X61851976Y-163221165D01*
X61834949Y-163220000D01*
X61520000Y-163220000D01*
X61520000Y-163192837D01*
X61517598Y-163168451D01*
X61510485Y-163145002D01*
X61498934Y-163123391D01*
X61483388Y-163104449D01*
X61464446Y-163088903D01*
X61435858Y-163074703D01*
X55062448Y-160870366D01*
X55038616Y-160864665D01*
X55021590Y-160863500D01*
X54999313Y-160863500D01*
X54994211Y-160857783D01*
X54974642Y-160843034D01*
X54950412Y-160831617D01*
X54895000Y-160812452D01*
X54895000Y-160758511D01*
X54892598Y-160734125D01*
X54885485Y-160710676D01*
X54870974Y-160684827D01*
X54027168Y-159528500D01*
X52009465Y-156763500D01*
X59669548Y-156763500D01*
X59677882Y-156768408D01*
X59677882Y-156768408D01*
G37*
G36*
X80694000Y-163220000D02*
X77294000Y-163220000D01*
X77294000Y-156820000D01*
X80694000Y-156820000D01*
X80694000Y-163220000D01*
X80694000Y-163220000D01*
G37*
G36*
X240039913Y-163129427D02*
X237139913Y-163129427D01*
X237139913Y-160229427D01*
X240039913Y-160229427D01*
X240039913Y-163129427D01*
X240039913Y-163129427D01*
G37*
G36*
X172729913Y-163129427D02*
X169829913Y-163129427D01*
X169829913Y-160229427D01*
X172729913Y-160229427D01*
X172729913Y-163129427D01*
X172729913Y-163129427D01*
G37*
G36*
X90157882Y-154228408D02*
X90181017Y-154236485D01*
X90210453Y-154240000D01*
X92430601Y-154240000D01*
X92454987Y-154237598D01*
X92471459Y-154233134D01*
X92493111Y-154225645D01*
X92502165Y-154230485D01*
X92525614Y-154237598D01*
X92550000Y-154240000D01*
X106125000Y-154240000D01*
X106125000Y-155732049D01*
X106122402Y-155740614D01*
X106120000Y-155765000D01*
X106120000Y-160680000D01*
X92550000Y-160680000D01*
X92525614Y-160682402D01*
X92502165Y-160689515D01*
X92480554Y-160701066D01*
X92461612Y-160716612D01*
X92457234Y-160721946D01*
X92355807Y-160686866D01*
X92331976Y-160681165D01*
X92314949Y-160680000D01*
X92000000Y-160680000D01*
X92000000Y-160652837D01*
X91997598Y-160628451D01*
X91990485Y-160605002D01*
X91978934Y-160583391D01*
X91963388Y-160564449D01*
X91944446Y-160548903D01*
X91915858Y-160534703D01*
X85542448Y-158330366D01*
X85518616Y-158324665D01*
X85501590Y-158323500D01*
X85479313Y-158323500D01*
X85474211Y-158317783D01*
X85454642Y-158303034D01*
X85430412Y-158291617D01*
X85375000Y-158272452D01*
X85375000Y-158218511D01*
X85372598Y-158194125D01*
X85365485Y-158170676D01*
X85350974Y-158144827D01*
X85088174Y-157784694D01*
X82489465Y-154223500D01*
X90149548Y-154223500D01*
X90157882Y-154228408D01*
X90157882Y-154228408D01*
G37*
G36*
X346697882Y-154228408D02*
X346721017Y-154236485D01*
X346750453Y-154240000D01*
X348970601Y-154240000D01*
X348994987Y-154237598D01*
X349011459Y-154233134D01*
X349033111Y-154225645D01*
X349042165Y-154230485D01*
X349065614Y-154237598D01*
X349090000Y-154240000D01*
X362665000Y-154240000D01*
X362665000Y-155732049D01*
X362662402Y-155740614D01*
X362660000Y-155765000D01*
X362660000Y-160680000D01*
X349090000Y-160680000D01*
X349065614Y-160682402D01*
X349042165Y-160689515D01*
X349020554Y-160701066D01*
X349001612Y-160716612D01*
X348997234Y-160721946D01*
X348895807Y-160686866D01*
X348871976Y-160681165D01*
X348854949Y-160680000D01*
X348540000Y-160680000D01*
X348540000Y-160652837D01*
X348537598Y-160628451D01*
X348530485Y-160605002D01*
X348518934Y-160583391D01*
X348503388Y-160564449D01*
X348484446Y-160548903D01*
X348455858Y-160534703D01*
X342082448Y-158330366D01*
X342058616Y-158324665D01*
X342041590Y-158323500D01*
X342019313Y-158323500D01*
X342014211Y-158317783D01*
X341994642Y-158303034D01*
X341970412Y-158291617D01*
X341915000Y-158272452D01*
X341915000Y-158218511D01*
X341912598Y-158194125D01*
X341905485Y-158170676D01*
X341890974Y-158144827D01*
X341628174Y-157784694D01*
X339029465Y-154223500D01*
X346689548Y-154223500D01*
X346697882Y-154228408D01*
X346697882Y-154228408D01*
G37*
G36*
X111174000Y-160680000D02*
X107774000Y-160680000D01*
X107774000Y-154280000D01*
X111174000Y-154280000D01*
X111174000Y-160680000D01*
X111174000Y-160680000D01*
G37*
G36*
X367714000Y-160680000D02*
X364314000Y-160680000D01*
X364314000Y-154280000D01*
X367714000Y-154280000D01*
X367714000Y-160680000D01*
X367714000Y-160680000D01*
G37*
G36*
X276931635Y-148529454D02*
X277471693Y-148693278D01*
X277623434Y-148774386D01*
X277969409Y-148959314D01*
X277969411Y-148959315D01*
X277969410Y-148959315D01*
X278405663Y-149317337D01*
X278688184Y-149661591D01*
X278763686Y-149753590D01*
X278887522Y-149985270D01*
X279029722Y-150251306D01*
X279193546Y-150791364D01*
X279235000Y-151212254D01*
X279235000Y-156823746D01*
X279193546Y-157244636D01*
X279029722Y-157784694D01*
X278887522Y-158050730D01*
X278763686Y-158282410D01*
X278405663Y-158718663D01*
X277969410Y-159076686D01*
X277737730Y-159200522D01*
X277471694Y-159342722D01*
X276931636Y-159506546D01*
X276370000Y-159561862D01*
X275808365Y-159506546D01*
X275268307Y-159342722D01*
X275002271Y-159200522D01*
X274770591Y-159076686D01*
X274334338Y-158718663D01*
X273976315Y-158282410D01*
X273852479Y-158050730D01*
X273710279Y-157784694D01*
X273546455Y-157244636D01*
X273505001Y-156823746D01*
X273505000Y-151212255D01*
X273546454Y-150791365D01*
X273710278Y-150251307D01*
X273976315Y-149753590D01*
X274334337Y-149317337D01*
X274704255Y-149013754D01*
X274770590Y-148959314D01*
X275116565Y-148774386D01*
X275268306Y-148693278D01*
X275808364Y-148529454D01*
X276370000Y-148474138D01*
X276931635Y-148529454D01*
X276931635Y-148529454D01*
G37*
G36*
X312100635Y-148437454D02*
X312640693Y-148601278D01*
X312906729Y-148743478D01*
X313138409Y-148867314D01*
X313147774Y-148875000D01*
X313574663Y-149225337D01*
X313832900Y-149540000D01*
X313932686Y-149661590D01*
X314056522Y-149893270D01*
X314198722Y-150159306D01*
X314362546Y-150699364D01*
X314404000Y-151120254D01*
X314404000Y-156731746D01*
X314362546Y-157152636D01*
X314198722Y-157692694D01*
X314123011Y-157834338D01*
X313932686Y-158190410D01*
X313574663Y-158626663D01*
X313138410Y-158984686D01*
X312906730Y-159108522D01*
X312640694Y-159250722D01*
X312100636Y-159414546D01*
X311539000Y-159469862D01*
X310977365Y-159414546D01*
X310437307Y-159250722D01*
X310171271Y-159108522D01*
X309939591Y-158984686D01*
X309503338Y-158626663D01*
X309145315Y-158190410D01*
X308954990Y-157834338D01*
X308879279Y-157692694D01*
X308715455Y-157152636D01*
X308674001Y-156731746D01*
X308674000Y-151120255D01*
X308715454Y-150699365D01*
X308879278Y-150159307D01*
X309096139Y-149753591D01*
X309145314Y-149661591D01*
X309373010Y-149384142D01*
X309503337Y-149225337D01*
X309930225Y-148875000D01*
X309939590Y-148867314D01*
X310171270Y-148743478D01*
X310437306Y-148601278D01*
X310977364Y-148437454D01*
X311539000Y-148382138D01*
X312100635Y-148437454D01*
X312100635Y-148437454D01*
G37*
G36*
X243370614Y-135177598D02*
X243395000Y-135180000D01*
X248310000Y-135180000D01*
X248310000Y-148750000D01*
X248312402Y-148774386D01*
X248319515Y-148797835D01*
X248331066Y-148819446D01*
X248346612Y-148838388D01*
X248351946Y-148842766D01*
X248316866Y-148944193D01*
X248311165Y-148968024D01*
X248310000Y-148985051D01*
X248310000Y-149300000D01*
X248282837Y-149300000D01*
X248258451Y-149302402D01*
X248235002Y-149309515D01*
X248213391Y-149321066D01*
X248194449Y-149336612D01*
X248178903Y-149355554D01*
X248164703Y-149384142D01*
X245960366Y-155757552D01*
X245954665Y-155781384D01*
X245953500Y-155798410D01*
X245953500Y-155820687D01*
X245947783Y-155825789D01*
X245933034Y-155845358D01*
X245921617Y-155869588D01*
X245902452Y-155925000D01*
X245848511Y-155925000D01*
X245824125Y-155927402D01*
X245800676Y-155934515D01*
X245774827Y-155949026D01*
X241853500Y-158810535D01*
X241853500Y-151150452D01*
X241858408Y-151142118D01*
X241866485Y-151118983D01*
X241870000Y-151089547D01*
X241870000Y-148869399D01*
X241867598Y-148845013D01*
X241863134Y-148828541D01*
X241855645Y-148806889D01*
X241860485Y-148797835D01*
X241867598Y-148774386D01*
X241870000Y-148750000D01*
X241870000Y-135175000D01*
X243362049Y-135175000D01*
X243370614Y-135177598D01*
X243370614Y-135177598D01*
G37*
G36*
X172729913Y-158129427D02*
X169829913Y-158129427D01*
X169829913Y-155229427D01*
X172729913Y-155229427D01*
X172729913Y-158129427D01*
X172729913Y-158129427D01*
G37*
G36*
X240039913Y-158129427D02*
X237139913Y-158129427D01*
X237139913Y-155229427D01*
X240039913Y-155229427D01*
X240039913Y-158129427D01*
X240039913Y-158129427D01*
G37*
G36*
X59677882Y-147624408D02*
X59701017Y-147632485D01*
X59730453Y-147636000D01*
X61950601Y-147636000D01*
X61974987Y-147633598D01*
X61991459Y-147629134D01*
X62013111Y-147621645D01*
X62022165Y-147626485D01*
X62045614Y-147633598D01*
X62070000Y-147636000D01*
X75645000Y-147636000D01*
X75645000Y-149128049D01*
X75642402Y-149136614D01*
X75640000Y-149161000D01*
X75640000Y-154076000D01*
X62070000Y-154076000D01*
X62045614Y-154078402D01*
X62022165Y-154085515D01*
X62000554Y-154097066D01*
X61981612Y-154112612D01*
X61977234Y-154117946D01*
X61875807Y-154082866D01*
X61851976Y-154077165D01*
X61834949Y-154076000D01*
X61520000Y-154076000D01*
X61520000Y-154048837D01*
X61517598Y-154024451D01*
X61510485Y-154001002D01*
X61498934Y-153979391D01*
X61483388Y-153960449D01*
X61464446Y-153944903D01*
X61435858Y-153930703D01*
X55062448Y-151726366D01*
X55038616Y-151720665D01*
X55021590Y-151719500D01*
X54999313Y-151719500D01*
X54994211Y-151713783D01*
X54974642Y-151699034D01*
X54950412Y-151687617D01*
X54895000Y-151668452D01*
X54895000Y-151614511D01*
X54892598Y-151590125D01*
X54885485Y-151566676D01*
X54870974Y-151540827D01*
X52009465Y-147619500D01*
X59669548Y-147619500D01*
X59677882Y-147624408D01*
X59677882Y-147624408D01*
G37*
G36*
X80694000Y-154076000D02*
X77294000Y-154076000D01*
X77294000Y-147676000D01*
X80694000Y-147676000D01*
X80694000Y-154076000D01*
X80694000Y-154076000D01*
G37*
G36*
X346697882Y-144068408D02*
X346721017Y-144076485D01*
X346750453Y-144080000D01*
X348970601Y-144080000D01*
X348994987Y-144077598D01*
X349011459Y-144073134D01*
X349033111Y-144065645D01*
X349042165Y-144070485D01*
X349065614Y-144077598D01*
X349090000Y-144080000D01*
X362665000Y-144080000D01*
X362665000Y-145572049D01*
X362662402Y-145580614D01*
X362660000Y-145605000D01*
X362660000Y-150520000D01*
X349090000Y-150520000D01*
X349065614Y-150522402D01*
X349042165Y-150529515D01*
X349020554Y-150541066D01*
X349001612Y-150556612D01*
X348997234Y-150561946D01*
X348895807Y-150526866D01*
X348871976Y-150521165D01*
X348854949Y-150520000D01*
X348540000Y-150520000D01*
X348540000Y-150492837D01*
X348537598Y-150468451D01*
X348530485Y-150445002D01*
X348518934Y-150423391D01*
X348503388Y-150404449D01*
X348484446Y-150388903D01*
X348455858Y-150374703D01*
X342082448Y-148170366D01*
X342058616Y-148164665D01*
X342041590Y-148163500D01*
X342019313Y-148163500D01*
X342014211Y-148157783D01*
X341994642Y-148143034D01*
X341970412Y-148131617D01*
X341915000Y-148112452D01*
X341915000Y-148058511D01*
X341912598Y-148034125D01*
X341905485Y-148010676D01*
X341890974Y-147984827D01*
X341643140Y-147645203D01*
X339029465Y-144063500D01*
X346689548Y-144063500D01*
X346697882Y-144068408D01*
X346697882Y-144068408D01*
G37*
G36*
X90157882Y-144068408D02*
X90181017Y-144076485D01*
X90210453Y-144080000D01*
X92430601Y-144080000D01*
X92454987Y-144077598D01*
X92471459Y-144073134D01*
X92493111Y-144065645D01*
X92502165Y-144070485D01*
X92525614Y-144077598D01*
X92550000Y-144080000D01*
X106125000Y-144080000D01*
X106125000Y-145572049D01*
X106122402Y-145580614D01*
X106120000Y-145605000D01*
X106120000Y-150520000D01*
X92550000Y-150520000D01*
X92525614Y-150522402D01*
X92502165Y-150529515D01*
X92480554Y-150541066D01*
X92461612Y-150556612D01*
X92457234Y-150561946D01*
X92355807Y-150526866D01*
X92331976Y-150521165D01*
X92314949Y-150520000D01*
X92000000Y-150520000D01*
X92000000Y-150492837D01*
X91997598Y-150468451D01*
X91990485Y-150445002D01*
X91978934Y-150423391D01*
X91963388Y-150404449D01*
X91944446Y-150388903D01*
X91915858Y-150374703D01*
X85542448Y-148170366D01*
X85518616Y-148164665D01*
X85501590Y-148163500D01*
X85479313Y-148163500D01*
X85474211Y-148157783D01*
X85454642Y-148143034D01*
X85430412Y-148131617D01*
X85375000Y-148112452D01*
X85375000Y-148058511D01*
X85372598Y-148034125D01*
X85365485Y-148010676D01*
X85350974Y-147984827D01*
X85103140Y-147645203D01*
X82489465Y-144063500D01*
X90149548Y-144063500D01*
X90157882Y-144068408D01*
X90157882Y-144068408D01*
G37*
G36*
X111174000Y-150520000D02*
X107774000Y-150520000D01*
X107774000Y-144120000D01*
X111174000Y-144120000D01*
X111174000Y-150520000D01*
X111174000Y-150520000D01*
G37*
G36*
X367714000Y-150520000D02*
X364314000Y-150520000D01*
X364314000Y-144120000D01*
X367714000Y-144120000D01*
X367714000Y-150520000D01*
X367714000Y-150520000D01*
G37*
G36*
X59677882Y-138988408D02*
X59701017Y-138996485D01*
X59730453Y-139000000D01*
X61950601Y-139000000D01*
X61974987Y-138997598D01*
X61991459Y-138993134D01*
X62013111Y-138985645D01*
X62022165Y-138990485D01*
X62045614Y-138997598D01*
X62070000Y-139000000D01*
X75645000Y-139000000D01*
X75645000Y-140492049D01*
X75642402Y-140500614D01*
X75640000Y-140525000D01*
X75640000Y-145440000D01*
X62070000Y-145440000D01*
X62045614Y-145442402D01*
X62022165Y-145449515D01*
X62000554Y-145461066D01*
X61981612Y-145476612D01*
X61977234Y-145481946D01*
X61875807Y-145446866D01*
X61851976Y-145441165D01*
X61834949Y-145440000D01*
X61520000Y-145440000D01*
X61520000Y-145412837D01*
X61517598Y-145388451D01*
X61510485Y-145365002D01*
X61498934Y-145343391D01*
X61483388Y-145324449D01*
X61464446Y-145308903D01*
X61435858Y-145294703D01*
X55062448Y-143090366D01*
X55038616Y-143084665D01*
X55021590Y-143083500D01*
X54999313Y-143083500D01*
X54994211Y-143077783D01*
X54974642Y-143063034D01*
X54950412Y-143051617D01*
X54895000Y-143032452D01*
X54895000Y-142978511D01*
X54892598Y-142954125D01*
X54885485Y-142930676D01*
X54870974Y-142904827D01*
X53587506Y-141146000D01*
X52009465Y-138983500D01*
X59669548Y-138983500D01*
X59677882Y-138988408D01*
X59677882Y-138988408D01*
G37*
G36*
X80694000Y-145440000D02*
X77294000Y-145440000D01*
X77294000Y-139040000D01*
X80694000Y-139040000D01*
X80694000Y-145440000D01*
X80694000Y-145440000D01*
G37*
G36*
X125120000Y-141146000D02*
X118720000Y-141146000D01*
X118720000Y-137746000D01*
X125120000Y-137746000D01*
X125120000Y-141146000D01*
X125120000Y-141146000D01*
G37*
G36*
X188760614Y-117397598D02*
X188785000Y-117400000D01*
X193700000Y-117400000D01*
X193700000Y-130970000D01*
X193702402Y-130994386D01*
X193709515Y-131017835D01*
X193721066Y-131039446D01*
X193736612Y-131058388D01*
X193741946Y-131062766D01*
X193706866Y-131164193D01*
X193701165Y-131188024D01*
X193700000Y-131205051D01*
X193700000Y-131520000D01*
X193672837Y-131520000D01*
X193648451Y-131522402D01*
X193625002Y-131529515D01*
X193603391Y-131541066D01*
X193584449Y-131556612D01*
X193568903Y-131575554D01*
X193554703Y-131604142D01*
X191350366Y-137977552D01*
X191344665Y-138001384D01*
X191343500Y-138018410D01*
X191343500Y-138040687D01*
X191337783Y-138045789D01*
X191323034Y-138065358D01*
X191311617Y-138089588D01*
X191292452Y-138145000D01*
X191238511Y-138145000D01*
X191214125Y-138147402D01*
X191190676Y-138154515D01*
X191164827Y-138169026D01*
X187243500Y-141030535D01*
X187243500Y-133370452D01*
X187248408Y-133362118D01*
X187256485Y-133338983D01*
X187260000Y-133309547D01*
X187260000Y-131089399D01*
X187257598Y-131065013D01*
X187253134Y-131048541D01*
X187245645Y-131026889D01*
X187250485Y-131017835D01*
X187257598Y-130994386D01*
X187260000Y-130970000D01*
X187260000Y-117395000D01*
X188752049Y-117395000D01*
X188760614Y-117397598D01*
X188760614Y-117397598D01*
G37*
G36*
X172729913Y-140729427D02*
X169829913Y-140729427D01*
X169829913Y-137829427D01*
X172729913Y-137829427D01*
X172729913Y-140729427D01*
X172729913Y-140729427D01*
G37*
G36*
X240039913Y-140729427D02*
X237139913Y-140729427D01*
X237139913Y-137829427D01*
X240039913Y-137829427D01*
X240039913Y-140729427D01*
X240039913Y-140729427D01*
G37*
G36*
X345427882Y-133908408D02*
X345451017Y-133916485D01*
X345480453Y-133920000D01*
X347700601Y-133920000D01*
X347724987Y-133917598D01*
X347741459Y-133913134D01*
X347763111Y-133905645D01*
X347772165Y-133910485D01*
X347795614Y-133917598D01*
X347820000Y-133920000D01*
X361395000Y-133920000D01*
X361395000Y-135412049D01*
X361392402Y-135420614D01*
X361390000Y-135445000D01*
X361390000Y-140360000D01*
X347820000Y-140360000D01*
X347795614Y-140362402D01*
X347772165Y-140369515D01*
X347750554Y-140381066D01*
X347731612Y-140396612D01*
X347727234Y-140401946D01*
X347625807Y-140366866D01*
X347601976Y-140361165D01*
X347584949Y-140360000D01*
X347270000Y-140360000D01*
X347270000Y-140332837D01*
X347267598Y-140308451D01*
X347260485Y-140285002D01*
X347248934Y-140263391D01*
X347233388Y-140244449D01*
X347214446Y-140228903D01*
X347185858Y-140214703D01*
X340812448Y-138010366D01*
X340788616Y-138004665D01*
X340771590Y-138003500D01*
X340749313Y-138003500D01*
X340744211Y-137997783D01*
X340724642Y-137983034D01*
X340700412Y-137971617D01*
X340645000Y-137952452D01*
X340645000Y-137898511D01*
X340642598Y-137874125D01*
X340635485Y-137850676D01*
X340620974Y-137824827D01*
X340072012Y-137072546D01*
X337759465Y-133903500D01*
X345419548Y-133903500D01*
X345427882Y-133908408D01*
X345427882Y-133908408D01*
G37*
G36*
X90157882Y-133908408D02*
X90181017Y-133916485D01*
X90210453Y-133920000D01*
X92430601Y-133920000D01*
X92454987Y-133917598D01*
X92471459Y-133913134D01*
X92493111Y-133905645D01*
X92502165Y-133910485D01*
X92525614Y-133917598D01*
X92550000Y-133920000D01*
X106125000Y-133920000D01*
X106125000Y-135412049D01*
X106122402Y-135420614D01*
X106120000Y-135445000D01*
X106120000Y-140360000D01*
X92550000Y-140360000D01*
X92525614Y-140362402D01*
X92502165Y-140369515D01*
X92480554Y-140381066D01*
X92461612Y-140396612D01*
X92457234Y-140401946D01*
X92355807Y-140366866D01*
X92331976Y-140361165D01*
X92314949Y-140360000D01*
X92000000Y-140360000D01*
X92000000Y-140332837D01*
X91997598Y-140308451D01*
X91990485Y-140285002D01*
X91978934Y-140263391D01*
X91963388Y-140244449D01*
X91944446Y-140228903D01*
X91915858Y-140214703D01*
X85542448Y-138010366D01*
X85518616Y-138004665D01*
X85501590Y-138003500D01*
X85479313Y-138003500D01*
X85474211Y-137997783D01*
X85454642Y-137983034D01*
X85430412Y-137971617D01*
X85375000Y-137952452D01*
X85375000Y-137898511D01*
X85372598Y-137874125D01*
X85365485Y-137850676D01*
X85350974Y-137824827D01*
X84802012Y-137072546D01*
X82489465Y-133903500D01*
X90149548Y-133903500D01*
X90157882Y-133908408D01*
X90157882Y-133908408D01*
G37*
G36*
X111174000Y-140360000D02*
X107774000Y-140360000D01*
X107774000Y-133960000D01*
X111174000Y-133960000D01*
X111174000Y-140360000D01*
X111174000Y-140360000D01*
G37*
G36*
X366444000Y-140360000D02*
X363044000Y-140360000D01*
X363044000Y-133960000D01*
X366444000Y-133960000D01*
X366444000Y-140360000D01*
X366444000Y-140360000D01*
G37*
G36*
X176060614Y-116127598D02*
X176085000Y-116130000D01*
X181000000Y-116130000D01*
X181000000Y-129700000D01*
X181002402Y-129724386D01*
X181009515Y-129747835D01*
X181021066Y-129769446D01*
X181036612Y-129788388D01*
X181041946Y-129792766D01*
X181006866Y-129894193D01*
X181001165Y-129918024D01*
X181000000Y-129935051D01*
X181000000Y-130250000D01*
X180972837Y-130250000D01*
X180948451Y-130252402D01*
X180925002Y-130259515D01*
X180903391Y-130271066D01*
X180884449Y-130286612D01*
X180868903Y-130305554D01*
X180854703Y-130334142D01*
X178650366Y-136707552D01*
X178644665Y-136731384D01*
X178643500Y-136748410D01*
X178643500Y-136770687D01*
X178637783Y-136775789D01*
X178623034Y-136795358D01*
X178611617Y-136819588D01*
X178592452Y-136875000D01*
X178538511Y-136875000D01*
X178514125Y-136877402D01*
X178490676Y-136884515D01*
X178464827Y-136899026D01*
X174543500Y-139760535D01*
X174543500Y-132100452D01*
X174548408Y-132092118D01*
X174556485Y-132068983D01*
X174560000Y-132039547D01*
X174560000Y-129819399D01*
X174557598Y-129795013D01*
X174553134Y-129778541D01*
X174545645Y-129756889D01*
X174550485Y-129747835D01*
X174557598Y-129724386D01*
X174560000Y-129700000D01*
X174560000Y-116125000D01*
X176052049Y-116125000D01*
X176060614Y-116127598D01*
X176060614Y-116127598D01*
G37*
G36*
X276947636Y-126187454D02*
X277487694Y-126351278D01*
X277722176Y-126476612D01*
X277985410Y-126617314D01*
X278421663Y-126975337D01*
X278779686Y-127411590D01*
X278872377Y-127585002D01*
X279045722Y-127909306D01*
X279209546Y-128449364D01*
X279251000Y-128870254D01*
X279251000Y-134481746D01*
X279209546Y-134902636D01*
X279045722Y-135442694D01*
X279044489Y-135445000D01*
X278779686Y-135940410D01*
X278725246Y-136006745D01*
X278421663Y-136376663D01*
X278097513Y-136642685D01*
X277985409Y-136734686D01*
X277871900Y-136795358D01*
X277487693Y-137000722D01*
X276947635Y-137164546D01*
X276386000Y-137219862D01*
X275824364Y-137164546D01*
X275284306Y-137000722D01*
X274900099Y-136795358D01*
X274786590Y-136734686D01*
X274674488Y-136642686D01*
X274350337Y-136376663D01*
X274000624Y-135950535D01*
X273992314Y-135940409D01*
X273868478Y-135708729D01*
X273726278Y-135442693D01*
X273562454Y-134902635D01*
X273521000Y-134481745D01*
X273521001Y-128870254D01*
X273562455Y-128449364D01*
X273726279Y-127909306D01*
X273899624Y-127585002D01*
X273992315Y-127411590D01*
X274350338Y-126975337D01*
X274786591Y-126617314D01*
X275049825Y-126476612D01*
X275284307Y-126351278D01*
X275824365Y-126187454D01*
X276386000Y-126132138D01*
X276947636Y-126187454D01*
X276947636Y-126187454D01*
G37*
G36*
X312116636Y-126095454D02*
X312656694Y-126259278D01*
X312922730Y-126401478D01*
X313154410Y-126525314D01*
X313590663Y-126883337D01*
X313948686Y-127319590D01*
X313997861Y-127411590D01*
X314214722Y-127817306D01*
X314378546Y-128357364D01*
X314420000Y-128778254D01*
X314420000Y-134389746D01*
X314378546Y-134810636D01*
X314214722Y-135350694D01*
X314164314Y-135445000D01*
X313948687Y-135848409D01*
X313948685Y-135848411D01*
X313590663Y-136284663D01*
X313300446Y-136522837D01*
X313154409Y-136642686D01*
X312956614Y-136748410D01*
X312656693Y-136908722D01*
X312116635Y-137072546D01*
X311555000Y-137127862D01*
X310993364Y-137072546D01*
X310453306Y-136908722D01*
X310153385Y-136748410D01*
X309955590Y-136642686D01*
X309824809Y-136535357D01*
X309519337Y-136284663D01*
X309161315Y-135848410D01*
X308895278Y-135350693D01*
X308731454Y-134810635D01*
X308690000Y-134389745D01*
X308690001Y-128778254D01*
X308731455Y-128357364D01*
X308895279Y-127817306D01*
X309112140Y-127411590D01*
X309161315Y-127319590D01*
X309519338Y-126883337D01*
X309955591Y-126525314D01*
X310187271Y-126401478D01*
X310453307Y-126259278D01*
X310993365Y-126095454D01*
X311555000Y-126040138D01*
X312116636Y-126095454D01*
X312116636Y-126095454D01*
G37*
G36*
X172729913Y-136729427D02*
X169829913Y-136729427D01*
X169829913Y-133829427D01*
X172729913Y-133829427D01*
X172729913Y-136729427D01*
X172729913Y-136729427D01*
G37*
G36*
X240039913Y-136729427D02*
X237139913Y-136729427D01*
X237139913Y-133829427D01*
X240039913Y-133829427D01*
X240039913Y-136729427D01*
X240039913Y-136729427D01*
G37*
G36*
X59677882Y-130098408D02*
X59701017Y-130106485D01*
X59730453Y-130110000D01*
X61950601Y-130110000D01*
X61974987Y-130107598D01*
X61991459Y-130103134D01*
X62013111Y-130095645D01*
X62022165Y-130100485D01*
X62045614Y-130107598D01*
X62070000Y-130110000D01*
X75645000Y-130110000D01*
X75645000Y-131602049D01*
X75642402Y-131610614D01*
X75640000Y-131635000D01*
X75640000Y-136550000D01*
X62070000Y-136550000D01*
X62045614Y-136552402D01*
X62022165Y-136559515D01*
X62000554Y-136571066D01*
X61981612Y-136586612D01*
X61977234Y-136591946D01*
X61875807Y-136556866D01*
X61851976Y-136551165D01*
X61834949Y-136550000D01*
X61520000Y-136550000D01*
X61520000Y-136522837D01*
X61517598Y-136498451D01*
X61510485Y-136475002D01*
X61498934Y-136453391D01*
X61483388Y-136434449D01*
X61464446Y-136418903D01*
X61435858Y-136404703D01*
X55062448Y-134200366D01*
X55038616Y-134194665D01*
X55021590Y-134193500D01*
X54999313Y-134193500D01*
X54994211Y-134187783D01*
X54974642Y-134173034D01*
X54950412Y-134161617D01*
X54895000Y-134142452D01*
X54895000Y-134088511D01*
X54892598Y-134064125D01*
X54885485Y-134040676D01*
X54870974Y-134014827D01*
X54527007Y-133543465D01*
X52009465Y-130093500D01*
X59669548Y-130093500D01*
X59677882Y-130098408D01*
X59677882Y-130098408D01*
G37*
G36*
X80694000Y-136550000D02*
X77294000Y-136550000D01*
X77294000Y-130150000D01*
X80694000Y-130150000D01*
X80694000Y-136550000D01*
X80694000Y-136550000D01*
G37*
G36*
X120180614Y-112317598D02*
X120205000Y-112320000D01*
X125120000Y-112320000D01*
X125120000Y-125890000D01*
X125122402Y-125914386D01*
X125129515Y-125937835D01*
X125141066Y-125959446D01*
X125156612Y-125978388D01*
X125161946Y-125982766D01*
X125126866Y-126084193D01*
X125121165Y-126108024D01*
X125120000Y-126125051D01*
X125120000Y-126440000D01*
X125092837Y-126440000D01*
X125068451Y-126442402D01*
X125045002Y-126449515D01*
X125023391Y-126461066D01*
X125004449Y-126476612D01*
X124988903Y-126495554D01*
X124974703Y-126524142D01*
X122770366Y-132897552D01*
X122764665Y-132921384D01*
X122763500Y-132938410D01*
X122763500Y-132960687D01*
X122757783Y-132965789D01*
X122743034Y-132985358D01*
X122731617Y-133009588D01*
X122712452Y-133065000D01*
X122658511Y-133065000D01*
X122634125Y-133067402D01*
X122610676Y-133074515D01*
X122584827Y-133089026D01*
X118663500Y-135950535D01*
X118663500Y-128290452D01*
X118668408Y-128282118D01*
X118676485Y-128258983D01*
X118680000Y-128229547D01*
X118680000Y-126009399D01*
X118677598Y-125985013D01*
X118673134Y-125968541D01*
X118665645Y-125946889D01*
X118670485Y-125937835D01*
X118677598Y-125914386D01*
X118680000Y-125890000D01*
X118680000Y-112315000D01*
X120172049Y-112315000D01*
X120180614Y-112317598D01*
X120180614Y-112317598D01*
G37*
G36*
X248310000Y-133526000D02*
X241910000Y-133526000D01*
X241910000Y-130126000D01*
X248310000Y-130126000D01*
X248310000Y-133526000D01*
X248310000Y-133526000D01*
G37*
G36*
X345427882Y-123748408D02*
X345451017Y-123756485D01*
X345480453Y-123760000D01*
X347700601Y-123760000D01*
X347724987Y-123757598D01*
X347741459Y-123753134D01*
X347763111Y-123745645D01*
X347772165Y-123750485D01*
X347795614Y-123757598D01*
X347820000Y-123760000D01*
X361395000Y-123760000D01*
X361395000Y-125252049D01*
X361392402Y-125260614D01*
X361390000Y-125285000D01*
X361390000Y-130200000D01*
X347820000Y-130200000D01*
X347795614Y-130202402D01*
X347772165Y-130209515D01*
X347750554Y-130221066D01*
X347731612Y-130236612D01*
X347727234Y-130241946D01*
X347625807Y-130206866D01*
X347601976Y-130201165D01*
X347584949Y-130200000D01*
X347270000Y-130200000D01*
X347270000Y-130172837D01*
X347267598Y-130148451D01*
X347260485Y-130125002D01*
X347248934Y-130103391D01*
X347233388Y-130084449D01*
X347214446Y-130068903D01*
X347185858Y-130054703D01*
X340812448Y-127850366D01*
X340788616Y-127844665D01*
X340771590Y-127843500D01*
X340749313Y-127843500D01*
X340744211Y-127837783D01*
X340724642Y-127823034D01*
X340700412Y-127811617D01*
X340645000Y-127792452D01*
X340645000Y-127738511D01*
X340642598Y-127714125D01*
X340635485Y-127690676D01*
X340620974Y-127664827D01*
X340391534Y-127350409D01*
X337759465Y-123743500D01*
X345419548Y-123743500D01*
X345427882Y-123748408D01*
X345427882Y-123748408D01*
G37*
G36*
X90157882Y-123748408D02*
X90181017Y-123756485D01*
X90210453Y-123760000D01*
X92430601Y-123760000D01*
X92454987Y-123757598D01*
X92471459Y-123753134D01*
X92493111Y-123745645D01*
X92502165Y-123750485D01*
X92525614Y-123757598D01*
X92550000Y-123760000D01*
X106125000Y-123760000D01*
X106125000Y-125252049D01*
X106122402Y-125260614D01*
X106120000Y-125285000D01*
X106120000Y-130200000D01*
X92550000Y-130200000D01*
X92525614Y-130202402D01*
X92502165Y-130209515D01*
X92480554Y-130221066D01*
X92461612Y-130236612D01*
X92457234Y-130241946D01*
X92355807Y-130206866D01*
X92331976Y-130201165D01*
X92314949Y-130200000D01*
X92000000Y-130200000D01*
X92000000Y-130172837D01*
X91997598Y-130148451D01*
X91990485Y-130125002D01*
X91978934Y-130103391D01*
X91963388Y-130084449D01*
X91944446Y-130068903D01*
X91915858Y-130054703D01*
X85542448Y-127850366D01*
X85518616Y-127844665D01*
X85501590Y-127843500D01*
X85479313Y-127843500D01*
X85474211Y-127837783D01*
X85454642Y-127823034D01*
X85430412Y-127811617D01*
X85375000Y-127792452D01*
X85375000Y-127738511D01*
X85372598Y-127714125D01*
X85365485Y-127690676D01*
X85350974Y-127664827D01*
X85121534Y-127350409D01*
X82489465Y-123743500D01*
X90149548Y-123743500D01*
X90157882Y-123748408D01*
X90157882Y-123748408D01*
G37*
G36*
X366444000Y-130200000D02*
X363044000Y-130200000D01*
X363044000Y-123800000D01*
X366444000Y-123800000D01*
X366444000Y-130200000D01*
X366444000Y-130200000D01*
G37*
G36*
X111174000Y-130200000D02*
X107774000Y-130200000D01*
X107774000Y-123800000D01*
X111174000Y-123800000D01*
X111174000Y-130200000D01*
X111174000Y-130200000D01*
G37*
G36*
X267833636Y-117597454D02*
X268373694Y-117761278D01*
X268639730Y-117903478D01*
X268871410Y-118027314D01*
X269307663Y-118385337D01*
X269648622Y-118800797D01*
X269665685Y-118821589D01*
X269931722Y-119319306D01*
X270095546Y-119859364D01*
X270137000Y-120280254D01*
X270137000Y-125891746D01*
X270095546Y-126312636D01*
X269931722Y-126852694D01*
X269789522Y-127118730D01*
X269665687Y-127350409D01*
X269665685Y-127350411D01*
X269307663Y-127786663D01*
X269230040Y-127850366D01*
X268871409Y-128144686D01*
X268657575Y-128258983D01*
X268373693Y-128410722D01*
X267833635Y-128574546D01*
X267272000Y-128629862D01*
X266710364Y-128574546D01*
X266170306Y-128410722D01*
X265886424Y-128258983D01*
X265672590Y-128144686D01*
X265533681Y-128030686D01*
X265236337Y-127786663D01*
X264878315Y-127350410D01*
X264868160Y-127331411D01*
X264612279Y-126852694D01*
X264612278Y-126852693D01*
X264448454Y-126312635D01*
X264407000Y-125891745D01*
X264407001Y-120280254D01*
X264448455Y-119859364D01*
X264612279Y-119319306D01*
X264878316Y-118821589D01*
X264895380Y-118800797D01*
X265236338Y-118385337D01*
X265672591Y-118027314D01*
X265904271Y-117903478D01*
X266170307Y-117761278D01*
X266710365Y-117597454D01*
X267272000Y-117542138D01*
X267833636Y-117597454D01*
X267833636Y-117597454D01*
G37*
G36*
X294381636Y-117578454D02*
X294921694Y-117742278D01*
X295187730Y-117884478D01*
X295419410Y-118008314D01*
X295855663Y-118366337D01*
X296213686Y-118802590D01*
X296337522Y-119034270D01*
X296479722Y-119300306D01*
X296643546Y-119840364D01*
X296685000Y-120261254D01*
X296685000Y-125872746D01*
X296643546Y-126293636D01*
X296479722Y-126833694D01*
X296337522Y-127099730D01*
X296213687Y-127331409D01*
X296213685Y-127331411D01*
X295855663Y-127767663D01*
X295535168Y-128030685D01*
X295419409Y-128125686D01*
X295225099Y-128229547D01*
X294921693Y-128391722D01*
X294381635Y-128555546D01*
X293820000Y-128610862D01*
X293258364Y-128555546D01*
X292718306Y-128391722D01*
X292414900Y-128229547D01*
X292220590Y-128125686D01*
X292104831Y-128030685D01*
X291784337Y-127767663D01*
X291426315Y-127331410D01*
X291419997Y-127319589D01*
X291235989Y-126975337D01*
X291160278Y-126833693D01*
X290996454Y-126293635D01*
X290955000Y-125872745D01*
X290955001Y-120261254D01*
X290996455Y-119840364D01*
X291160279Y-119300306D01*
X291302479Y-119034270D01*
X291426315Y-118802590D01*
X291784338Y-118366337D01*
X292220591Y-118008314D01*
X292452271Y-117884478D01*
X292718307Y-117742278D01*
X293258365Y-117578454D01*
X293820000Y-117523138D01*
X294381636Y-117578454D01*
X294381636Y-117578454D01*
G37*
G36*
X321151636Y-117483454D02*
X321691694Y-117647278D01*
X321957730Y-117789478D01*
X322189410Y-117913314D01*
X322625663Y-118271337D01*
X322983686Y-118707590D01*
X323044620Y-118821589D01*
X323249722Y-119205306D01*
X323413546Y-119745364D01*
X323455000Y-120166254D01*
X323455000Y-125777746D01*
X323413546Y-126198636D01*
X323249722Y-126738694D01*
X323198943Y-126833694D01*
X322983687Y-127236409D01*
X322983685Y-127236411D01*
X322625663Y-127672663D01*
X322416077Y-127844665D01*
X322189409Y-128030686D01*
X322011679Y-128125685D01*
X321691693Y-128296722D01*
X321151635Y-128460546D01*
X320590000Y-128515862D01*
X320028364Y-128460546D01*
X319488306Y-128296722D01*
X319168320Y-128125685D01*
X318990590Y-128030686D01*
X318842688Y-127909306D01*
X318554337Y-127672663D01*
X318196315Y-127236410D01*
X317930278Y-126738693D01*
X317766454Y-126198635D01*
X317725000Y-125777745D01*
X317725001Y-120166254D01*
X317766455Y-119745364D01*
X317930279Y-119205306D01*
X318135381Y-118821589D01*
X318196315Y-118707590D01*
X318554338Y-118271337D01*
X318990591Y-117913314D01*
X319222271Y-117789478D01*
X319488307Y-117647278D01*
X320028365Y-117483454D01*
X320590000Y-117428138D01*
X321151636Y-117483454D01*
X321151636Y-117483454D01*
G37*
G36*
X59677882Y-121208408D02*
X59701017Y-121216485D01*
X59730453Y-121220000D01*
X61950601Y-121220000D01*
X61974987Y-121217598D01*
X61991459Y-121213134D01*
X62013111Y-121205645D01*
X62022165Y-121210485D01*
X62045614Y-121217598D01*
X62070000Y-121220000D01*
X75645000Y-121220000D01*
X75645000Y-122712049D01*
X75642402Y-122720614D01*
X75640000Y-122745000D01*
X75640000Y-127660000D01*
X62070000Y-127660000D01*
X62045614Y-127662402D01*
X62022165Y-127669515D01*
X62000554Y-127681066D01*
X61981612Y-127696612D01*
X61977234Y-127701946D01*
X61875807Y-127666866D01*
X61851976Y-127661165D01*
X61834949Y-127660000D01*
X61520000Y-127660000D01*
X61520000Y-127632837D01*
X61517598Y-127608451D01*
X61510485Y-127585002D01*
X61498934Y-127563391D01*
X61483388Y-127544449D01*
X61464446Y-127528903D01*
X61435858Y-127514703D01*
X55062448Y-125310366D01*
X55038616Y-125304665D01*
X55021590Y-125303500D01*
X54999313Y-125303500D01*
X54994211Y-125297783D01*
X54974642Y-125283034D01*
X54950412Y-125271617D01*
X54895000Y-125252452D01*
X54895000Y-125198511D01*
X54892598Y-125174125D01*
X54885485Y-125150676D01*
X54870974Y-125124827D01*
X52009465Y-121203500D01*
X59669548Y-121203500D01*
X59677882Y-121208408D01*
X59677882Y-121208408D01*
G37*
G36*
X80694000Y-127660000D02*
X77294000Y-127660000D01*
X77294000Y-121260000D01*
X80694000Y-121260000D01*
X80694000Y-127660000D01*
X80694000Y-127660000D01*
G37*
G36*
X90157882Y-113588408D02*
X90181017Y-113596485D01*
X90210453Y-113600000D01*
X92430601Y-113600000D01*
X92454987Y-113597598D01*
X92471459Y-113593134D01*
X92493111Y-113585645D01*
X92502165Y-113590485D01*
X92525614Y-113597598D01*
X92550000Y-113600000D01*
X106125000Y-113600000D01*
X106125000Y-115092049D01*
X106122402Y-115100614D01*
X106120000Y-115125000D01*
X106120000Y-120040000D01*
X92550000Y-120040000D01*
X92525614Y-120042402D01*
X92502165Y-120049515D01*
X92480554Y-120061066D01*
X92461612Y-120076612D01*
X92457234Y-120081946D01*
X92355807Y-120046866D01*
X92331976Y-120041165D01*
X92314949Y-120040000D01*
X92000000Y-120040000D01*
X92000000Y-120012837D01*
X91997598Y-119988451D01*
X91990485Y-119965002D01*
X91978934Y-119943391D01*
X91963388Y-119924449D01*
X91944446Y-119908903D01*
X91915858Y-119894703D01*
X85542448Y-117690366D01*
X85518616Y-117684665D01*
X85501590Y-117683500D01*
X85479313Y-117683500D01*
X85474211Y-117677783D01*
X85454642Y-117663034D01*
X85430412Y-117651617D01*
X85375000Y-117632452D01*
X85375000Y-117578511D01*
X85372598Y-117554125D01*
X85365485Y-117530676D01*
X85350974Y-117504827D01*
X84559611Y-116420366D01*
X82489465Y-113583500D01*
X90149548Y-113583500D01*
X90157882Y-113588408D01*
X90157882Y-113588408D01*
G37*
G36*
X346697882Y-113588408D02*
X346721017Y-113596485D01*
X346750453Y-113600000D01*
X348970601Y-113600000D01*
X348994987Y-113597598D01*
X349011459Y-113593134D01*
X349033111Y-113585645D01*
X349042165Y-113590485D01*
X349065614Y-113597598D01*
X349090000Y-113600000D01*
X362665000Y-113600000D01*
X362665000Y-115092049D01*
X362662402Y-115100614D01*
X362660000Y-115125000D01*
X362660000Y-120040000D01*
X349090000Y-120040000D01*
X349065614Y-120042402D01*
X349042165Y-120049515D01*
X349020554Y-120061066D01*
X349001612Y-120076612D01*
X348997234Y-120081946D01*
X348895807Y-120046866D01*
X348871976Y-120041165D01*
X348854949Y-120040000D01*
X348540000Y-120040000D01*
X348540000Y-120012837D01*
X348537598Y-119988451D01*
X348530485Y-119965002D01*
X348518934Y-119943391D01*
X348503388Y-119924449D01*
X348484446Y-119908903D01*
X348455858Y-119894703D01*
X342082448Y-117690366D01*
X342058616Y-117684665D01*
X342041590Y-117683500D01*
X342019313Y-117683500D01*
X342014211Y-117677783D01*
X341994642Y-117663034D01*
X341970412Y-117651617D01*
X341915000Y-117632452D01*
X341915000Y-117578511D01*
X341912598Y-117554125D01*
X341905485Y-117530676D01*
X341890974Y-117504827D01*
X341099611Y-116420366D01*
X339029465Y-113583500D01*
X346689548Y-113583500D01*
X346697882Y-113588408D01*
X346697882Y-113588408D01*
G37*
G36*
X367714000Y-120040000D02*
X364314000Y-120040000D01*
X364314000Y-113640000D01*
X367714000Y-113640000D01*
X367714000Y-120040000D01*
X367714000Y-120040000D01*
G37*
G36*
X111174000Y-120040000D02*
X107774000Y-120040000D01*
X107774000Y-113640000D01*
X111174000Y-113640000D01*
X111174000Y-120040000D01*
X111174000Y-120040000D01*
G37*
G36*
X172729913Y-119129427D02*
X169829913Y-119129427D01*
X169829913Y-116229427D01*
X172729913Y-116229427D01*
X172729913Y-119129427D01*
X172729913Y-119129427D01*
G37*
G36*
X240039913Y-119129427D02*
X237139913Y-119129427D01*
X237139913Y-116229427D01*
X240039913Y-116229427D01*
X240039913Y-119129427D01*
X240039913Y-119129427D01*
G37*
G36*
X59677882Y-112318408D02*
X59701017Y-112326485D01*
X59730453Y-112330000D01*
X61950601Y-112330000D01*
X61974987Y-112327598D01*
X61991459Y-112323134D01*
X62013111Y-112315645D01*
X62022165Y-112320485D01*
X62045614Y-112327598D01*
X62070000Y-112330000D01*
X75645000Y-112330000D01*
X75645000Y-113822049D01*
X75642402Y-113830614D01*
X75640000Y-113855000D01*
X75640000Y-118770000D01*
X62070000Y-118770000D01*
X62045614Y-118772402D01*
X62022165Y-118779515D01*
X62000554Y-118791066D01*
X61981612Y-118806612D01*
X61977234Y-118811946D01*
X61875807Y-118776866D01*
X61851976Y-118771165D01*
X61834949Y-118770000D01*
X61520000Y-118770000D01*
X61520000Y-118742837D01*
X61517598Y-118718451D01*
X61510485Y-118695002D01*
X61498934Y-118673391D01*
X61483388Y-118654449D01*
X61464446Y-118638903D01*
X61435858Y-118624703D01*
X55062448Y-116420366D01*
X55038616Y-116414665D01*
X55021590Y-116413500D01*
X54999313Y-116413500D01*
X54994211Y-116407783D01*
X54974642Y-116393034D01*
X54950412Y-116381617D01*
X54895000Y-116362452D01*
X54895000Y-116308511D01*
X54892598Y-116284125D01*
X54885485Y-116260676D01*
X54870974Y-116234827D01*
X54734312Y-116047549D01*
X52009465Y-112313500D01*
X59669548Y-112313500D01*
X59677882Y-112318408D01*
X59677882Y-112318408D01*
G37*
G36*
X80694000Y-118770000D02*
X77294000Y-118770000D01*
X77294000Y-112370000D01*
X80694000Y-112370000D01*
X80694000Y-118770000D01*
X80694000Y-118770000D01*
G37*
G36*
X193700000Y-115746000D02*
X187300000Y-115746000D01*
X187300000Y-112346000D01*
X193700000Y-112346000D01*
X193700000Y-115746000D01*
X193700000Y-115746000D01*
G37*
G36*
X181000000Y-114476000D02*
X174600000Y-114476000D01*
X174600000Y-111076000D01*
X181000000Y-111076000D01*
X181000000Y-114476000D01*
X181000000Y-114476000D01*
G37*
G36*
X172729913Y-114129427D02*
X169829913Y-114129427D01*
X169829913Y-111229427D01*
X172729913Y-111229427D01*
X172729913Y-114129427D01*
X172729913Y-114129427D01*
G37*
G36*
X240039913Y-114129427D02*
X237139913Y-114129427D01*
X237139913Y-111229427D01*
X240039913Y-111229427D01*
X240039913Y-114129427D01*
X240039913Y-114129427D01*
G37*
G36*
X125120000Y-110666000D02*
X118720000Y-110666000D01*
X118720000Y-107266000D01*
X125120000Y-107266000D01*
X125120000Y-110666000D01*
X125120000Y-110666000D01*
G37*
G36*
X59677882Y-103428408D02*
X59701017Y-103436485D01*
X59730453Y-103440000D01*
X61950601Y-103440000D01*
X61974987Y-103437598D01*
X61991459Y-103433134D01*
X62013111Y-103425645D01*
X62022165Y-103430485D01*
X62045614Y-103437598D01*
X62070000Y-103440000D01*
X75645000Y-103440000D01*
X75645000Y-104932049D01*
X75642402Y-104940614D01*
X75640000Y-104965000D01*
X75640000Y-109880000D01*
X62070000Y-109880000D01*
X62045614Y-109882402D01*
X62022165Y-109889515D01*
X62000554Y-109901066D01*
X61981612Y-109916612D01*
X61977234Y-109921946D01*
X61875807Y-109886866D01*
X61851976Y-109881165D01*
X61834949Y-109880000D01*
X61520000Y-109880000D01*
X61520000Y-109852837D01*
X61517598Y-109828451D01*
X61510485Y-109805002D01*
X61498934Y-109783391D01*
X61483388Y-109764449D01*
X61464446Y-109748903D01*
X61435858Y-109734703D01*
X55062448Y-107530366D01*
X55038616Y-107524665D01*
X55021590Y-107523500D01*
X54999313Y-107523500D01*
X54994211Y-107517783D01*
X54974642Y-107503034D01*
X54950412Y-107491617D01*
X54895000Y-107472452D01*
X54895000Y-107418511D01*
X54892598Y-107394125D01*
X54885485Y-107370676D01*
X54870974Y-107344827D01*
X53807555Y-105887549D01*
X52009465Y-103423500D01*
X59669548Y-103423500D01*
X59677882Y-103428408D01*
X59677882Y-103428408D01*
G37*
G36*
X90157882Y-103428408D02*
X90181017Y-103436485D01*
X90210453Y-103440000D01*
X92430601Y-103440000D01*
X92454987Y-103437598D01*
X92471459Y-103433134D01*
X92493111Y-103425645D01*
X92502165Y-103430485D01*
X92525614Y-103437598D01*
X92550000Y-103440000D01*
X106125000Y-103440000D01*
X106125000Y-104932049D01*
X106122402Y-104940614D01*
X106120000Y-104965000D01*
X106120000Y-109880000D01*
X92550000Y-109880000D01*
X92525614Y-109882402D01*
X92502165Y-109889515D01*
X92480554Y-109901066D01*
X92461612Y-109916612D01*
X92457234Y-109921946D01*
X92355807Y-109886866D01*
X92331976Y-109881165D01*
X92314949Y-109880000D01*
X92000000Y-109880000D01*
X92000000Y-109852837D01*
X91997598Y-109828451D01*
X91990485Y-109805002D01*
X91978934Y-109783391D01*
X91963388Y-109764449D01*
X91944446Y-109748903D01*
X91915858Y-109734703D01*
X85542448Y-107530366D01*
X85518616Y-107524665D01*
X85501590Y-107523500D01*
X85479313Y-107523500D01*
X85474211Y-107517783D01*
X85454642Y-107503034D01*
X85430412Y-107491617D01*
X85375000Y-107472452D01*
X85375000Y-107418511D01*
X85372598Y-107394125D01*
X85365485Y-107370676D01*
X85350974Y-107344827D01*
X84287555Y-105887549D01*
X82489465Y-103423500D01*
X90149548Y-103423500D01*
X90157882Y-103428408D01*
X90157882Y-103428408D01*
G37*
G36*
X344157882Y-103428408D02*
X344181017Y-103436485D01*
X344210453Y-103440000D01*
X346430601Y-103440000D01*
X346454987Y-103437598D01*
X346471459Y-103433134D01*
X346493111Y-103425645D01*
X346502165Y-103430485D01*
X346525614Y-103437598D01*
X346550000Y-103440000D01*
X360125000Y-103440000D01*
X360125000Y-104932049D01*
X360122402Y-104940614D01*
X360120000Y-104965000D01*
X360120000Y-109880000D01*
X346550000Y-109880000D01*
X346525614Y-109882402D01*
X346502165Y-109889515D01*
X346480554Y-109901066D01*
X346461612Y-109916612D01*
X346457234Y-109921946D01*
X346355807Y-109886866D01*
X346331976Y-109881165D01*
X346314949Y-109880000D01*
X346000000Y-109880000D01*
X346000000Y-109852837D01*
X345997598Y-109828451D01*
X345990485Y-109805002D01*
X345978934Y-109783391D01*
X345963388Y-109764449D01*
X345944446Y-109748903D01*
X345915858Y-109734703D01*
X339542448Y-107530366D01*
X339518616Y-107524665D01*
X339501590Y-107523500D01*
X339479313Y-107523500D01*
X339474211Y-107517783D01*
X339454642Y-107503034D01*
X339430412Y-107491617D01*
X339375000Y-107472452D01*
X339375000Y-107418511D01*
X339372598Y-107394125D01*
X339365485Y-107370676D01*
X339350974Y-107344827D01*
X338287555Y-105887549D01*
X336489465Y-103423500D01*
X344149548Y-103423500D01*
X344157882Y-103428408D01*
X344157882Y-103428408D01*
G37*
G36*
X111174000Y-109880000D02*
X107774000Y-109880000D01*
X107774000Y-103480000D01*
X111174000Y-103480000D01*
X111174000Y-109880000D01*
X111174000Y-109880000D01*
G37*
G36*
X80694000Y-109880000D02*
X77294000Y-109880000D01*
X77294000Y-103480000D01*
X80694000Y-103480000D01*
X80694000Y-109880000D01*
X80694000Y-109880000D01*
G37*
G36*
X365174000Y-109880000D02*
X361774000Y-109880000D01*
X361774000Y-103480000D01*
X365174000Y-103480000D01*
X365174000Y-109880000D01*
X365174000Y-109880000D01*
G37*
M02*
