G04 #@! TF.GenerationSoftware,KiCad,Pcbnew,(5.0.2-5-10.14)*
G04 #@! TF.CreationDate,2019-03-02T12:48:45-06:00*
G04 #@! TF.ProjectId,BackPanel,4261636b-5061-46e6-956c-2e6b69636164,rev?*
G04 #@! TF.SameCoordinates,Original*
G04 #@! TF.FileFunction,Copper,L2,Bot*
G04 #@! TF.FilePolarity,Positive*
%FSLAX46Y46*%
G04 Gerber Fmt 4.6, Leading zero omitted, Abs format (unit mm)*
G04 Created by KiCad (PCBNEW (5.0.2-5-10.14)) date Saturday, March 02, 2019 at 12:48:45 PM*
%MOMM*%
%LPD*%
G01*
G04 APERTURE LIST*
G04 #@! TA.AperFunction,ViaPad*
%ADD10C,0.800000*%
G04 #@! TD*
G04 #@! TA.AperFunction,Conductor*
%ADD11C,0.254000*%
G04 #@! TD*
G04 APERTURE END LIST*
D10*
G04 #@! TO.N,VCC*
X171450000Y-113030000D03*
X171450000Y-118110000D03*
X171450000Y-156210000D03*
X171450000Y-161290000D03*
X238760000Y-161290000D03*
X238760000Y-156210000D03*
X238760000Y-118110000D03*
X238760000Y-113030000D03*
X275590000Y-128270000D03*
X275590000Y-135890000D03*
X275590000Y-149860000D03*
X275590000Y-157480000D03*
X311150000Y-157480000D03*
X311150000Y-151130000D03*
X311150000Y-135890000D03*
X311150000Y-128270000D03*
X339090000Y-175260000D03*
X347980000Y-180340000D03*
X356870000Y-180340000D03*
X356870000Y-175260000D03*
X360680000Y-170180000D03*
X340360000Y-165100000D03*
X349250000Y-170180000D03*
X360680000Y-165100000D03*
X360680000Y-154940000D03*
X360680000Y-160020000D03*
X349250000Y-160020000D03*
X340360000Y-154940000D03*
X340360000Y-144780000D03*
X349250000Y-149860000D03*
X360680000Y-149860000D03*
X360680000Y-144780000D03*
X359410000Y-134620000D03*
X359410000Y-139700000D03*
X347980000Y-139700000D03*
X339090000Y-134620000D03*
X339090000Y-124460000D03*
X347980000Y-129540000D03*
X359410000Y-129540000D03*
X359410000Y-124460000D03*
X349250000Y-119380000D03*
X360680000Y-119380000D03*
X360680000Y-114300000D03*
X340360000Y-114300000D03*
X339090000Y-104140000D03*
X347980000Y-109220000D03*
X358140000Y-109220000D03*
X358140000Y-104140000D03*
X247650000Y-148590000D03*
X247650000Y-135890000D03*
X242570000Y-135890000D03*
X242570000Y-157480000D03*
X232410000Y-175260000D03*
X241300000Y-180340000D03*
X219710000Y-180340000D03*
X219710000Y-175260000D03*
X207010000Y-175260000D03*
X207010000Y-180340000D03*
X194310000Y-180340000D03*
X185420000Y-175260000D03*
X176530000Y-175260000D03*
X185420000Y-180340000D03*
X163830000Y-180340000D03*
X163830000Y-175260000D03*
X149860000Y-180340000D03*
X149860000Y-175260000D03*
X130810000Y-175260000D03*
X187960000Y-139700000D03*
X193040000Y-130810000D03*
X193040000Y-119380000D03*
X187960000Y-119380000D03*
X175260000Y-138430000D03*
X180340000Y-129540000D03*
X180340000Y-118110000D03*
X175260000Y-118110000D03*
X124460000Y-156210000D03*
X119380000Y-165100000D03*
X119380000Y-144780000D03*
X124460000Y-144780000D03*
X124460000Y-125730000D03*
X124460000Y-114300000D03*
X119380000Y-114300000D03*
X119380000Y-134620000D03*
X104140000Y-104140000D03*
X104140000Y-109220000D03*
X92710000Y-109220000D03*
X83820000Y-104140000D03*
X83820000Y-114300000D03*
X92710000Y-119380000D03*
X104140000Y-114300000D03*
X104140000Y-119380000D03*
X83820000Y-124460000D03*
X92710000Y-129540000D03*
X104140000Y-129540000D03*
X104140000Y-124460000D03*
X104140000Y-134620000D03*
X104140000Y-139700000D03*
X92710000Y-139700000D03*
X83820000Y-134620000D03*
X83820000Y-144780000D03*
X92710000Y-149860000D03*
X104140000Y-149860000D03*
X104140000Y-144780000D03*
X92710000Y-160020000D03*
X83820000Y-154940000D03*
X104140000Y-154940000D03*
X104140000Y-160020000D03*
X83820000Y-165100000D03*
X92710000Y-170180000D03*
X104140000Y-165100000D03*
X104140000Y-170180000D03*
X83820000Y-175260000D03*
X92710000Y-180340000D03*
X104140000Y-180340000D03*
X104140000Y-175260000D03*
X53340000Y-175260000D03*
X62230000Y-180340000D03*
X73660000Y-180340000D03*
X73660000Y-175260000D03*
X53340000Y-166370000D03*
X62230000Y-171450000D03*
X73660000Y-171450000D03*
X73660000Y-166370000D03*
X73660000Y-162560000D03*
X73660000Y-157480000D03*
X60960000Y-162560000D03*
X54610000Y-157480000D03*
X53340000Y-148590000D03*
X62230000Y-153670000D03*
X73660000Y-153670000D03*
X73660000Y-148590000D03*
X53340000Y-139700000D03*
X62230000Y-144780000D03*
X73660000Y-144780000D03*
X73660000Y-139700000D03*
X73660000Y-135890000D03*
X73660000Y-130810000D03*
X62230000Y-135890000D03*
X53340000Y-130810000D03*
X53340000Y-121920000D03*
X62230000Y-127000000D03*
X73660000Y-127000000D03*
X73660000Y-121920000D03*
X53340000Y-113030000D03*
X62230000Y-118110000D03*
X73660000Y-118110000D03*
X73660000Y-113030000D03*
X53340000Y-104140000D03*
X62230000Y-109220000D03*
X73660000Y-109220000D03*
X73660000Y-104140000D03*
G04 #@! TD*
D11*
G04 #@! TO.N,VCC*
G36*
X370592916Y-101921481D02*
X370713000Y-176563181D01*
X370713000Y-182753000D01*
X80412216Y-182753000D01*
X45847000Y-182674347D01*
X45847000Y-179046710D01*
X46221317Y-179046710D01*
X46337639Y-179631499D01*
X46668895Y-180127260D01*
X47164656Y-180458516D01*
X47749445Y-180574838D01*
X48334234Y-180458516D01*
X48617102Y-180269510D01*
X48647197Y-180256745D01*
X48668246Y-180235337D01*
X48829995Y-180127260D01*
X49161251Y-179631499D01*
X49261193Y-179129054D01*
X112210315Y-179129054D01*
X112325707Y-179709169D01*
X112654316Y-180200966D01*
X113146113Y-180529575D01*
X113726228Y-180644967D01*
X114306343Y-180529575D01*
X114606003Y-180329348D01*
X114652794Y-180306418D01*
X114670665Y-180286142D01*
X114798140Y-180200966D01*
X115126749Y-179709169D01*
X115177652Y-179453258D01*
X254686133Y-179453258D01*
X254801525Y-180033373D01*
X255130134Y-180525170D01*
X255621931Y-180853779D01*
X256202046Y-180969171D01*
X256782161Y-180853779D01*
X257081821Y-180653552D01*
X257128612Y-180630622D01*
X257146483Y-180610346D01*
X257273958Y-180525170D01*
X257602567Y-180033373D01*
X257653742Y-179776094D01*
X366758969Y-179776094D01*
X366875291Y-180360884D01*
X367206548Y-180856644D01*
X367702308Y-181187901D01*
X368287098Y-181304223D01*
X368871888Y-181187901D01*
X369154758Y-180998893D01*
X369184850Y-180986129D01*
X369205897Y-180964723D01*
X369367648Y-180856644D01*
X369698905Y-180360884D01*
X369815227Y-179776094D01*
X369698905Y-179191304D01*
X369367648Y-178695544D01*
X368871888Y-178364287D01*
X368287098Y-178247965D01*
X367702308Y-178364287D01*
X367206548Y-178695544D01*
X367129339Y-178811095D01*
X367109932Y-178826690D01*
X367069021Y-178901366D01*
X366875291Y-179191304D01*
X366758969Y-179776094D01*
X257653742Y-179776094D01*
X257717959Y-179453258D01*
X257602567Y-178873143D01*
X257273958Y-178381346D01*
X256782161Y-178052737D01*
X256202046Y-177937345D01*
X255621931Y-178052737D01*
X255130134Y-178381346D01*
X254801525Y-178873143D01*
X254686133Y-179453258D01*
X115177652Y-179453258D01*
X115242141Y-179129054D01*
X115126749Y-178548939D01*
X114798140Y-178057142D01*
X114306343Y-177728533D01*
X113726228Y-177613141D01*
X113146113Y-177728533D01*
X112654316Y-178057142D01*
X112586515Y-178158613D01*
X112528630Y-178210439D01*
X112469120Y-178334307D01*
X112325707Y-178548939D01*
X112210315Y-179129054D01*
X49261193Y-179129054D01*
X49277573Y-179046710D01*
X49161251Y-178461921D01*
X48829995Y-177966160D01*
X48334234Y-177634904D01*
X47749445Y-177518582D01*
X47164656Y-177634904D01*
X46668895Y-177966160D01*
X46591687Y-178081710D01*
X46572279Y-178097306D01*
X46531365Y-178171988D01*
X46337639Y-178461921D01*
X46221317Y-179046710D01*
X45847000Y-179046710D01*
X45847000Y-153448530D01*
X176998276Y-153448530D01*
X177029820Y-154739233D01*
X177231791Y-156014425D01*
X177600640Y-157251703D01*
X178129886Y-158429330D01*
X178810232Y-159526616D01*
X179629725Y-160524283D01*
X180573967Y-161404803D01*
X181626368Y-162152706D01*
X182768440Y-162754852D01*
X183980117Y-163200662D01*
X185240111Y-163482304D01*
X186526285Y-163594830D01*
X187816044Y-163536262D01*
X189086727Y-163307630D01*
X190316009Y-162912951D01*
X191482294Y-162359158D01*
X192565092Y-161655981D01*
X193398956Y-160941274D01*
X193399714Y-160940936D01*
X193482671Y-160889855D01*
X193558144Y-160828251D01*
X193604781Y-160780589D01*
X194138533Y-160183144D01*
X194143076Y-160177325D01*
X194148251Y-160172045D01*
X194189330Y-160119517D01*
X194272747Y-160002256D01*
X194405929Y-159853300D01*
X195131628Y-158785466D01*
X195709725Y-157631035D01*
X196130062Y-156410287D01*
X196385255Y-155144671D01*
X196470820Y-153856422D01*
X196459191Y-153380599D01*
X196310797Y-152098067D01*
X195994084Y-150846428D01*
X195514615Y-149647672D01*
X194880816Y-148522858D01*
X194103820Y-147491750D01*
X193197278Y-146572462D01*
X192177119Y-145781145D01*
X191061265Y-145131702D01*
X189869319Y-144635543D01*
X188622224Y-144301385D01*
X187341890Y-144135099D01*
X186050810Y-144139605D01*
X184771668Y-144314826D01*
X183526936Y-144657682D01*
X182338483Y-145162151D01*
X181227190Y-145819368D01*
X180212580Y-146617787D01*
X179312479Y-147543382D01*
X178542700Y-148579889D01*
X177916768Y-149709100D01*
X177445680Y-150911175D01*
X177137713Y-152164994D01*
X176998276Y-153448530D01*
X45847000Y-153448530D01*
X45847000Y-104693526D01*
X46101698Y-104693526D01*
X46218020Y-105278315D01*
X46549276Y-105774076D01*
X47045037Y-106105332D01*
X47629826Y-106221654D01*
X48214615Y-106105332D01*
X48497479Y-105916329D01*
X48527578Y-105903562D01*
X48548630Y-105882151D01*
X48710376Y-105774076D01*
X49041632Y-105278315D01*
X49114575Y-104911603D01*
X112090914Y-104911603D01*
X112206306Y-105491718D01*
X112534915Y-105983516D01*
X113026713Y-106312125D01*
X113606828Y-106427517D01*
X114186943Y-106312125D01*
X114459424Y-106130059D01*
X114500505Y-106112666D01*
X114529442Y-106083275D01*
X114678741Y-105983516D01*
X115007350Y-105491718D01*
X115058254Y-105235806D01*
X254566732Y-105235806D01*
X254682124Y-105815921D01*
X255010733Y-106307718D01*
X255502530Y-106636327D01*
X256082645Y-106751719D01*
X256662760Y-106636327D01*
X256935229Y-106454269D01*
X256976320Y-106436872D01*
X257005267Y-106407471D01*
X257154557Y-106307718D01*
X257483166Y-105815921D01*
X257561340Y-105422910D01*
X366639351Y-105422910D01*
X366755673Y-106007699D01*
X367086929Y-106503460D01*
X367582690Y-106834716D01*
X368167479Y-106951038D01*
X368752268Y-106834716D01*
X369035136Y-106645710D01*
X369065231Y-106632945D01*
X369086280Y-106611537D01*
X369248029Y-106503460D01*
X369579285Y-106007699D01*
X369695607Y-105422910D01*
X369579285Y-104838121D01*
X369248029Y-104342360D01*
X368752268Y-104011104D01*
X368167479Y-103894782D01*
X367582690Y-104011104D01*
X367086929Y-104342360D01*
X367009721Y-104457910D01*
X366990313Y-104473506D01*
X366949399Y-104548188D01*
X366755673Y-104838121D01*
X366639351Y-105422910D01*
X257561340Y-105422910D01*
X257598558Y-105235806D01*
X257483166Y-104655691D01*
X257154557Y-104163894D01*
X256662760Y-103835285D01*
X256082645Y-103719893D01*
X255502530Y-103835285D01*
X255010733Y-104163894D01*
X254926316Y-104290232D01*
X254922811Y-104293030D01*
X254915030Y-104307124D01*
X254682124Y-104655691D01*
X254566732Y-105235806D01*
X115058254Y-105235806D01*
X115122742Y-104911603D01*
X115007350Y-104331488D01*
X114678741Y-103839690D01*
X114186943Y-103511081D01*
X113606828Y-103395689D01*
X113026713Y-103511081D01*
X112534915Y-103839690D01*
X112450494Y-103966035D01*
X112446991Y-103968831D01*
X112439215Y-103982915D01*
X112206306Y-104331488D01*
X112090914Y-104911603D01*
X49114575Y-104911603D01*
X49157954Y-104693526D01*
X49041632Y-104108737D01*
X48710376Y-103612976D01*
X48214615Y-103281720D01*
X47629826Y-103165398D01*
X47045037Y-103281720D01*
X46549276Y-103612976D01*
X46472067Y-103728527D01*
X46452662Y-103744121D01*
X46411754Y-103818792D01*
X46218020Y-104108737D01*
X46101698Y-104693526D01*
X45847000Y-104693526D01*
X45847000Y-101727000D01*
X285125480Y-101727000D01*
X370592916Y-101921481D01*
X370592916Y-101921481D01*
G37*
X370592916Y-101921481D02*
X370713000Y-176563181D01*
X370713000Y-182753000D01*
X80412216Y-182753000D01*
X45847000Y-182674347D01*
X45847000Y-179046710D01*
X46221317Y-179046710D01*
X46337639Y-179631499D01*
X46668895Y-180127260D01*
X47164656Y-180458516D01*
X47749445Y-180574838D01*
X48334234Y-180458516D01*
X48617102Y-180269510D01*
X48647197Y-180256745D01*
X48668246Y-180235337D01*
X48829995Y-180127260D01*
X49161251Y-179631499D01*
X49261193Y-179129054D01*
X112210315Y-179129054D01*
X112325707Y-179709169D01*
X112654316Y-180200966D01*
X113146113Y-180529575D01*
X113726228Y-180644967D01*
X114306343Y-180529575D01*
X114606003Y-180329348D01*
X114652794Y-180306418D01*
X114670665Y-180286142D01*
X114798140Y-180200966D01*
X115126749Y-179709169D01*
X115177652Y-179453258D01*
X254686133Y-179453258D01*
X254801525Y-180033373D01*
X255130134Y-180525170D01*
X255621931Y-180853779D01*
X256202046Y-180969171D01*
X256782161Y-180853779D01*
X257081821Y-180653552D01*
X257128612Y-180630622D01*
X257146483Y-180610346D01*
X257273958Y-180525170D01*
X257602567Y-180033373D01*
X257653742Y-179776094D01*
X366758969Y-179776094D01*
X366875291Y-180360884D01*
X367206548Y-180856644D01*
X367702308Y-181187901D01*
X368287098Y-181304223D01*
X368871888Y-181187901D01*
X369154758Y-180998893D01*
X369184850Y-180986129D01*
X369205897Y-180964723D01*
X369367648Y-180856644D01*
X369698905Y-180360884D01*
X369815227Y-179776094D01*
X369698905Y-179191304D01*
X369367648Y-178695544D01*
X368871888Y-178364287D01*
X368287098Y-178247965D01*
X367702308Y-178364287D01*
X367206548Y-178695544D01*
X367129339Y-178811095D01*
X367109932Y-178826690D01*
X367069021Y-178901366D01*
X366875291Y-179191304D01*
X366758969Y-179776094D01*
X257653742Y-179776094D01*
X257717959Y-179453258D01*
X257602567Y-178873143D01*
X257273958Y-178381346D01*
X256782161Y-178052737D01*
X256202046Y-177937345D01*
X255621931Y-178052737D01*
X255130134Y-178381346D01*
X254801525Y-178873143D01*
X254686133Y-179453258D01*
X115177652Y-179453258D01*
X115242141Y-179129054D01*
X115126749Y-178548939D01*
X114798140Y-178057142D01*
X114306343Y-177728533D01*
X113726228Y-177613141D01*
X113146113Y-177728533D01*
X112654316Y-178057142D01*
X112586515Y-178158613D01*
X112528630Y-178210439D01*
X112469120Y-178334307D01*
X112325707Y-178548939D01*
X112210315Y-179129054D01*
X49261193Y-179129054D01*
X49277573Y-179046710D01*
X49161251Y-178461921D01*
X48829995Y-177966160D01*
X48334234Y-177634904D01*
X47749445Y-177518582D01*
X47164656Y-177634904D01*
X46668895Y-177966160D01*
X46591687Y-178081710D01*
X46572279Y-178097306D01*
X46531365Y-178171988D01*
X46337639Y-178461921D01*
X46221317Y-179046710D01*
X45847000Y-179046710D01*
X45847000Y-153448530D01*
X176998276Y-153448530D01*
X177029820Y-154739233D01*
X177231791Y-156014425D01*
X177600640Y-157251703D01*
X178129886Y-158429330D01*
X178810232Y-159526616D01*
X179629725Y-160524283D01*
X180573967Y-161404803D01*
X181626368Y-162152706D01*
X182768440Y-162754852D01*
X183980117Y-163200662D01*
X185240111Y-163482304D01*
X186526285Y-163594830D01*
X187816044Y-163536262D01*
X189086727Y-163307630D01*
X190316009Y-162912951D01*
X191482294Y-162359158D01*
X192565092Y-161655981D01*
X193398956Y-160941274D01*
X193399714Y-160940936D01*
X193482671Y-160889855D01*
X193558144Y-160828251D01*
X193604781Y-160780589D01*
X194138533Y-160183144D01*
X194143076Y-160177325D01*
X194148251Y-160172045D01*
X194189330Y-160119517D01*
X194272747Y-160002256D01*
X194405929Y-159853300D01*
X195131628Y-158785466D01*
X195709725Y-157631035D01*
X196130062Y-156410287D01*
X196385255Y-155144671D01*
X196470820Y-153856422D01*
X196459191Y-153380599D01*
X196310797Y-152098067D01*
X195994084Y-150846428D01*
X195514615Y-149647672D01*
X194880816Y-148522858D01*
X194103820Y-147491750D01*
X193197278Y-146572462D01*
X192177119Y-145781145D01*
X191061265Y-145131702D01*
X189869319Y-144635543D01*
X188622224Y-144301385D01*
X187341890Y-144135099D01*
X186050810Y-144139605D01*
X184771668Y-144314826D01*
X183526936Y-144657682D01*
X182338483Y-145162151D01*
X181227190Y-145819368D01*
X180212580Y-146617787D01*
X179312479Y-147543382D01*
X178542700Y-148579889D01*
X177916768Y-149709100D01*
X177445680Y-150911175D01*
X177137713Y-152164994D01*
X176998276Y-153448530D01*
X45847000Y-153448530D01*
X45847000Y-104693526D01*
X46101698Y-104693526D01*
X46218020Y-105278315D01*
X46549276Y-105774076D01*
X47045037Y-106105332D01*
X47629826Y-106221654D01*
X48214615Y-106105332D01*
X48497479Y-105916329D01*
X48527578Y-105903562D01*
X48548630Y-105882151D01*
X48710376Y-105774076D01*
X49041632Y-105278315D01*
X49114575Y-104911603D01*
X112090914Y-104911603D01*
X112206306Y-105491718D01*
X112534915Y-105983516D01*
X113026713Y-106312125D01*
X113606828Y-106427517D01*
X114186943Y-106312125D01*
X114459424Y-106130059D01*
X114500505Y-106112666D01*
X114529442Y-106083275D01*
X114678741Y-105983516D01*
X115007350Y-105491718D01*
X115058254Y-105235806D01*
X254566732Y-105235806D01*
X254682124Y-105815921D01*
X255010733Y-106307718D01*
X255502530Y-106636327D01*
X256082645Y-106751719D01*
X256662760Y-106636327D01*
X256935229Y-106454269D01*
X256976320Y-106436872D01*
X257005267Y-106407471D01*
X257154557Y-106307718D01*
X257483166Y-105815921D01*
X257561340Y-105422910D01*
X366639351Y-105422910D01*
X366755673Y-106007699D01*
X367086929Y-106503460D01*
X367582690Y-106834716D01*
X368167479Y-106951038D01*
X368752268Y-106834716D01*
X369035136Y-106645710D01*
X369065231Y-106632945D01*
X369086280Y-106611537D01*
X369248029Y-106503460D01*
X369579285Y-106007699D01*
X369695607Y-105422910D01*
X369579285Y-104838121D01*
X369248029Y-104342360D01*
X368752268Y-104011104D01*
X368167479Y-103894782D01*
X367582690Y-104011104D01*
X367086929Y-104342360D01*
X367009721Y-104457910D01*
X366990313Y-104473506D01*
X366949399Y-104548188D01*
X366755673Y-104838121D01*
X366639351Y-105422910D01*
X257561340Y-105422910D01*
X257598558Y-105235806D01*
X257483166Y-104655691D01*
X257154557Y-104163894D01*
X256662760Y-103835285D01*
X256082645Y-103719893D01*
X255502530Y-103835285D01*
X255010733Y-104163894D01*
X254926316Y-104290232D01*
X254922811Y-104293030D01*
X254915030Y-104307124D01*
X254682124Y-104655691D01*
X254566732Y-105235806D01*
X115058254Y-105235806D01*
X115122742Y-104911603D01*
X115007350Y-104331488D01*
X114678741Y-103839690D01*
X114186943Y-103511081D01*
X113606828Y-103395689D01*
X113026713Y-103511081D01*
X112534915Y-103839690D01*
X112450494Y-103966035D01*
X112446991Y-103968831D01*
X112439215Y-103982915D01*
X112206306Y-104331488D01*
X112090914Y-104911603D01*
X49114575Y-104911603D01*
X49157954Y-104693526D01*
X49041632Y-104108737D01*
X48710376Y-103612976D01*
X48214615Y-103281720D01*
X47629826Y-103165398D01*
X47045037Y-103281720D01*
X46549276Y-103612976D01*
X46472067Y-103728527D01*
X46452662Y-103744121D01*
X46411754Y-103818792D01*
X46218020Y-104108737D01*
X46101698Y-104693526D01*
X45847000Y-104693526D01*
X45847000Y-101727000D01*
X285125480Y-101727000D01*
X370592916Y-101921481D01*
G04 #@! TD*
M02*
