G04 #@! TF.GenerationSoftware,KiCad,Pcbnew,(5.0.2-5-10.14)*
G04 #@! TF.CreationDate,2019-03-02T12:48:45-06:00*
G04 #@! TF.ProjectId,BackPanel,4261636b-5061-46e6-956c-2e6b69636164,rev?*
G04 #@! TF.SameCoordinates,Original*
G04 #@! TF.FileFunction,Paste,Top*
G04 #@! TF.FilePolarity,Positive*
%FSLAX46Y46*%
G04 Gerber Fmt 4.6, Leading zero omitted, Abs format (unit mm)*
G04 Created by KiCad (PCBNEW (5.0.2-5-10.14)) date Saturday, March 02, 2019 at 12:48:45 PM*
%MOMM*%
%LPD*%
G01*
G04 APERTURE LIST*
%ADD10R,2.500000X2.500000*%
%ADD11O,5.330000X10.660000*%
%ADD12R,15.000000X1.000000*%
%ADD13R,4.000000X1.500000*%
%ADD14C,3.231162*%
%ADD15C,0.100000*%
%ADD16C,3.402252*%
%ADD17R,13.720000X6.000000*%
%ADD18R,3.000000X6.000000*%
%ADD19R,6.000000X3.000000*%
%ADD20R,6.000000X13.720000*%
%ADD21R,1.500000X4.000000*%
%ADD22R,1.000000X15.000000*%
G04 APERTURE END LIST*
D10*
G04 #@! TO.C,SC1*
X238589913Y-161679427D03*
X238589913Y-156679427D03*
X238589913Y-139279427D03*
X238589913Y-135279427D03*
X238589913Y-117679427D03*
X238589913Y-112679427D03*
G04 #@! TD*
G04 #@! TO.C,SC2*
X171279913Y-112679427D03*
X171279913Y-117679427D03*
X171279913Y-135279427D03*
X171279913Y-139279427D03*
X171279913Y-156679427D03*
X171279913Y-161679427D03*
G04 #@! TD*
D11*
G04 #@! TO.C,SC3*
X276386000Y-131676000D03*
X311555000Y-131584000D03*
X267272000Y-123086000D03*
X293820000Y-123067000D03*
X320590000Y-122972000D03*
X311539000Y-153926000D03*
X276370000Y-154018000D03*
X320653000Y-162516000D03*
X294105000Y-162535000D03*
X267335000Y-162630000D03*
G04 #@! TD*
D12*
G04 #@! TO.C,SC4*
X67945000Y-148336000D03*
X66611500Y-148336000D03*
D13*
X60134500Y-148590000D03*
D14*
X55753000Y-149669500D03*
D15*
G36*
X52403000Y-147819500D02*
X59103000Y-147819500D01*
X56403000Y-151519500D01*
X55103000Y-151519500D01*
X52403000Y-147819500D01*
X52403000Y-147819500D01*
G37*
D16*
X58420000Y-150876000D03*
D15*
G36*
X61745000Y-147926000D02*
X61745000Y-153826000D01*
X55095000Y-151526000D01*
X55095000Y-150226000D01*
X61745000Y-147926000D01*
X61745000Y-147926000D01*
G37*
D17*
X68580000Y-150876000D03*
D18*
X78994000Y-150876000D03*
G04 #@! TD*
D12*
G04 #@! TO.C,SC5*
X351155000Y-175006000D03*
X349821500Y-175006000D03*
D13*
X343344500Y-175260000D03*
D14*
X338963000Y-176339500D03*
D15*
G36*
X335613000Y-174489500D02*
X342313000Y-174489500D01*
X339613000Y-178189500D01*
X338313000Y-178189500D01*
X335613000Y-174489500D01*
X335613000Y-174489500D01*
G37*
D16*
X341630000Y-177546000D03*
D15*
G36*
X344955000Y-174596000D02*
X344955000Y-180496000D01*
X338305000Y-178196000D01*
X338305000Y-176896000D01*
X344955000Y-174596000D01*
X344955000Y-174596000D01*
G37*
D17*
X351790000Y-177546000D03*
D18*
X362204000Y-177546000D03*
G04 #@! TD*
D12*
G04 #@! TO.C,SC6*
X67945000Y-113030000D03*
X66611500Y-113030000D03*
D13*
X60134500Y-113284000D03*
D14*
X55753000Y-114363500D03*
D15*
G36*
X52403000Y-112513500D02*
X59103000Y-112513500D01*
X56403000Y-116213500D01*
X55103000Y-116213500D01*
X52403000Y-112513500D01*
X52403000Y-112513500D01*
G37*
D16*
X58420000Y-115570000D03*
D15*
G36*
X61745000Y-112620000D02*
X61745000Y-118520000D01*
X55095000Y-116220000D01*
X55095000Y-114920000D01*
X61745000Y-112620000D01*
X61745000Y-112620000D01*
G37*
D17*
X68580000Y-115570000D03*
D18*
X78994000Y-115570000D03*
G04 #@! TD*
G04 #@! TO.C,SC7*
X78994000Y-160020000D03*
D17*
X68580000Y-160020000D03*
D16*
X58420000Y-160020000D03*
D15*
G36*
X61745000Y-157070000D02*
X61745000Y-162970000D01*
X55095000Y-160670000D01*
X55095000Y-159370000D01*
X61745000Y-157070000D01*
X61745000Y-157070000D01*
G37*
D14*
X55753000Y-158813500D03*
D15*
G36*
X52403000Y-156963500D02*
X59103000Y-156963500D01*
X56403000Y-160663500D01*
X55103000Y-160663500D01*
X52403000Y-156963500D01*
X52403000Y-156963500D01*
G37*
D13*
X60134500Y-157734000D03*
D12*
X66611500Y-157480000D03*
X67945000Y-157480000D03*
G04 #@! TD*
D18*
G04 #@! TO.C,SC8*
X215646000Y-177800000D03*
D17*
X226060000Y-177800000D03*
D16*
X236220000Y-177800000D03*
D15*
G36*
X232895000Y-180750000D02*
X232895000Y-174850000D01*
X239545000Y-177150000D01*
X239545000Y-178450000D01*
X232895000Y-180750000D01*
X232895000Y-180750000D01*
G37*
D14*
X238887000Y-179006500D03*
D15*
G36*
X242237000Y-180856500D02*
X235537000Y-180856500D01*
X238237000Y-177156500D01*
X239537000Y-177156500D01*
X242237000Y-180856500D01*
X242237000Y-180856500D01*
G37*
D13*
X234505500Y-180086000D03*
D12*
X228028500Y-180340000D03*
X226695000Y-180340000D03*
G04 #@! TD*
D18*
G04 #@! TO.C,SC9*
X78994000Y-124460000D03*
D17*
X68580000Y-124460000D03*
D16*
X58420000Y-124460000D03*
D15*
G36*
X61745000Y-121510000D02*
X61745000Y-127410000D01*
X55095000Y-125110000D01*
X55095000Y-123810000D01*
X61745000Y-121510000D01*
X61745000Y-121510000D01*
G37*
D14*
X55753000Y-123253500D03*
D15*
G36*
X52403000Y-121403500D02*
X59103000Y-121403500D01*
X56403000Y-125103500D01*
X55103000Y-125103500D01*
X52403000Y-121403500D01*
X52403000Y-121403500D01*
G37*
D13*
X60134500Y-122174000D03*
D12*
X66611500Y-121920000D03*
X67945000Y-121920000D03*
G04 #@! TD*
D18*
G04 #@! TO.C,SC10*
X78994000Y-168910000D03*
D17*
X68580000Y-168910000D03*
D16*
X58420000Y-168910000D03*
D15*
G36*
X61745000Y-165960000D02*
X61745000Y-171860000D01*
X55095000Y-169560000D01*
X55095000Y-168260000D01*
X61745000Y-165960000D01*
X61745000Y-165960000D01*
G37*
D14*
X55753000Y-167703500D03*
D15*
G36*
X52403000Y-165853500D02*
X59103000Y-165853500D01*
X56403000Y-169553500D01*
X55103000Y-169553500D01*
X52403000Y-165853500D01*
X52403000Y-165853500D01*
G37*
D13*
X60134500Y-166624000D03*
D12*
X66611500Y-166370000D03*
X67945000Y-166370000D03*
G04 #@! TD*
D18*
G04 #@! TO.C,SC11*
X78994000Y-133350000D03*
D17*
X68580000Y-133350000D03*
D16*
X58420000Y-133350000D03*
D15*
G36*
X61745000Y-130400000D02*
X61745000Y-136300000D01*
X55095000Y-134000000D01*
X55095000Y-132700000D01*
X61745000Y-130400000D01*
X61745000Y-130400000D01*
G37*
D14*
X55753000Y-132143500D03*
D15*
G36*
X52403000Y-130293500D02*
X59103000Y-130293500D01*
X56403000Y-133993500D01*
X55103000Y-133993500D01*
X52403000Y-130293500D01*
X52403000Y-130293500D01*
G37*
D13*
X60134500Y-131064000D03*
D12*
X66611500Y-130810000D03*
X67945000Y-130810000D03*
G04 #@! TD*
D18*
G04 #@! TO.C,SC12*
X78994000Y-177800000D03*
D17*
X68580000Y-177800000D03*
D16*
X58420000Y-177800000D03*
D15*
G36*
X61745000Y-174850000D02*
X61745000Y-180750000D01*
X55095000Y-178450000D01*
X55095000Y-177150000D01*
X61745000Y-174850000D01*
X61745000Y-174850000D01*
G37*
D14*
X55753000Y-176593500D03*
D15*
G36*
X52403000Y-174743500D02*
X59103000Y-174743500D01*
X56403000Y-178443500D01*
X55103000Y-178443500D01*
X52403000Y-174743500D01*
X52403000Y-174743500D01*
G37*
D13*
X60134500Y-175514000D03*
D12*
X66611500Y-175260000D03*
X67945000Y-175260000D03*
G04 #@! TD*
G04 #@! TO.C,SC13*
X67945000Y-139700000D03*
X66611500Y-139700000D03*
D13*
X60134500Y-139954000D03*
D14*
X55753000Y-141033500D03*
D15*
G36*
X52403000Y-139183500D02*
X59103000Y-139183500D01*
X56403000Y-142883500D01*
X55103000Y-142883500D01*
X52403000Y-139183500D01*
X52403000Y-139183500D01*
G37*
D16*
X58420000Y-142240000D03*
D15*
G36*
X61745000Y-139290000D02*
X61745000Y-145190000D01*
X55095000Y-142890000D01*
X55095000Y-141590000D01*
X61745000Y-139290000D01*
X61745000Y-139290000D01*
G37*
D17*
X68580000Y-142240000D03*
D18*
X78994000Y-142240000D03*
G04 #@! TD*
D12*
G04 #@! TO.C,SC14*
X354965000Y-165100000D03*
X353631500Y-165100000D03*
D13*
X347154500Y-165354000D03*
D14*
X342773000Y-166433500D03*
D15*
G36*
X339423000Y-164583500D02*
X346123000Y-164583500D01*
X343423000Y-168283500D01*
X342123000Y-168283500D01*
X339423000Y-164583500D01*
X339423000Y-164583500D01*
G37*
D16*
X345440000Y-167640000D03*
D15*
G36*
X348765000Y-164690000D02*
X348765000Y-170590000D01*
X342115000Y-168290000D01*
X342115000Y-166990000D01*
X348765000Y-164690000D01*
X348765000Y-164690000D01*
G37*
D17*
X355600000Y-167640000D03*
D18*
X366014000Y-167640000D03*
G04 #@! TD*
D12*
G04 #@! TO.C,SC15*
X98425000Y-164846000D03*
X97091500Y-164846000D03*
D13*
X90614500Y-165100000D03*
D14*
X86233000Y-166179500D03*
D15*
G36*
X82883000Y-164329500D02*
X89583000Y-164329500D01*
X86883000Y-168029500D01*
X85583000Y-168029500D01*
X82883000Y-164329500D01*
X82883000Y-164329500D01*
G37*
D16*
X88900000Y-167386000D03*
D15*
G36*
X92225000Y-164436000D02*
X92225000Y-170336000D01*
X85575000Y-168036000D01*
X85575000Y-166736000D01*
X92225000Y-164436000D01*
X92225000Y-164436000D01*
G37*
D17*
X99060000Y-167386000D03*
D18*
X109474000Y-167386000D03*
G04 #@! TD*
D12*
G04 #@! TO.C,SC16*
X354965000Y-154940000D03*
X353631500Y-154940000D03*
D13*
X347154500Y-155194000D03*
D14*
X342773000Y-156273500D03*
D15*
G36*
X339423000Y-154423500D02*
X346123000Y-154423500D01*
X343423000Y-158123500D01*
X342123000Y-158123500D01*
X339423000Y-154423500D01*
X339423000Y-154423500D01*
G37*
D16*
X345440000Y-157480000D03*
D15*
G36*
X348765000Y-154530000D02*
X348765000Y-160430000D01*
X342115000Y-158130000D01*
X342115000Y-156830000D01*
X348765000Y-154530000D01*
X348765000Y-154530000D01*
G37*
D17*
X355600000Y-157480000D03*
D18*
X366014000Y-157480000D03*
G04 #@! TD*
D12*
G04 #@! TO.C,SC17*
X98425000Y-154940000D03*
X97091500Y-154940000D03*
D13*
X90614500Y-155194000D03*
D14*
X86233000Y-156273500D03*
D15*
G36*
X82883000Y-154423500D02*
X89583000Y-154423500D01*
X86883000Y-158123500D01*
X85583000Y-158123500D01*
X82883000Y-154423500D01*
X82883000Y-154423500D01*
G37*
D16*
X88900000Y-157480000D03*
D15*
G36*
X92225000Y-154530000D02*
X92225000Y-160430000D01*
X85575000Y-158130000D01*
X85575000Y-156830000D01*
X92225000Y-154530000D01*
X92225000Y-154530000D01*
G37*
D17*
X99060000Y-157480000D03*
D18*
X109474000Y-157480000D03*
G04 #@! TD*
D12*
G04 #@! TO.C,SC18*
X354965000Y-144780000D03*
X353631500Y-144780000D03*
D13*
X347154500Y-145034000D03*
D14*
X342773000Y-146113500D03*
D15*
G36*
X339423000Y-144263500D02*
X346123000Y-144263500D01*
X343423000Y-147963500D01*
X342123000Y-147963500D01*
X339423000Y-144263500D01*
X339423000Y-144263500D01*
G37*
D16*
X345440000Y-147320000D03*
D15*
G36*
X348765000Y-144370000D02*
X348765000Y-150270000D01*
X342115000Y-147970000D01*
X342115000Y-146670000D01*
X348765000Y-144370000D01*
X348765000Y-144370000D01*
G37*
D17*
X355600000Y-147320000D03*
D18*
X366014000Y-147320000D03*
G04 #@! TD*
G04 #@! TO.C,SC19*
X109474000Y-177800000D03*
D17*
X99060000Y-177800000D03*
D16*
X88900000Y-177800000D03*
D15*
G36*
X92225000Y-174850000D02*
X92225000Y-180750000D01*
X85575000Y-178450000D01*
X85575000Y-177150000D01*
X92225000Y-174850000D01*
X92225000Y-174850000D01*
G37*
D14*
X86233000Y-176593500D03*
D15*
G36*
X82883000Y-174743500D02*
X89583000Y-174743500D01*
X86883000Y-178443500D01*
X85583000Y-178443500D01*
X82883000Y-174743500D01*
X82883000Y-174743500D01*
G37*
D13*
X90614500Y-175514000D03*
D12*
X97091500Y-175260000D03*
X98425000Y-175260000D03*
G04 #@! TD*
D18*
G04 #@! TO.C,SC20*
X78994000Y-106680000D03*
D17*
X68580000Y-106680000D03*
D16*
X58420000Y-106680000D03*
D15*
G36*
X61745000Y-103730000D02*
X61745000Y-109630000D01*
X55095000Y-107330000D01*
X55095000Y-106030000D01*
X61745000Y-103730000D01*
X61745000Y-103730000D01*
G37*
D14*
X55753000Y-105473500D03*
D15*
G36*
X52403000Y-103623500D02*
X59103000Y-103623500D01*
X56403000Y-107323500D01*
X55103000Y-107323500D01*
X52403000Y-103623500D01*
X52403000Y-103623500D01*
G37*
D13*
X60134500Y-104394000D03*
D12*
X66611500Y-104140000D03*
X67945000Y-104140000D03*
G04 #@! TD*
D18*
G04 #@! TO.C,SC21*
X364744000Y-137160000D03*
D17*
X354330000Y-137160000D03*
D16*
X344170000Y-137160000D03*
D15*
G36*
X347495000Y-134210000D02*
X347495000Y-140110000D01*
X340845000Y-137810000D01*
X340845000Y-136510000D01*
X347495000Y-134210000D01*
X347495000Y-134210000D01*
G37*
D14*
X341503000Y-135953500D03*
D15*
G36*
X338153000Y-134103500D02*
X344853000Y-134103500D01*
X342153000Y-137803500D01*
X340853000Y-137803500D01*
X338153000Y-134103500D01*
X338153000Y-134103500D01*
G37*
D13*
X345884500Y-134874000D03*
D12*
X352361500Y-134620000D03*
X353695000Y-134620000D03*
G04 #@! TD*
D19*
G04 #@! TO.C,SC22*
X121920000Y-139446000D03*
D20*
X121920000Y-149860000D03*
D16*
X121920000Y-160020000D03*
D15*
G36*
X118970000Y-156695000D02*
X124870000Y-156695000D01*
X122570000Y-163345000D01*
X121270000Y-163345000D01*
X118970000Y-156695000D01*
X118970000Y-156695000D01*
G37*
D14*
X120713500Y-162687000D03*
D15*
G36*
X118863500Y-166037000D02*
X118863500Y-159337000D01*
X122563500Y-162037000D01*
X122563500Y-163337000D01*
X118863500Y-166037000D01*
X118863500Y-166037000D01*
G37*
D21*
X119634000Y-158305500D03*
D22*
X119380000Y-151828500D03*
X119380000Y-150495000D03*
G04 #@! TD*
D18*
G04 #@! TO.C,SC23*
X109474000Y-147320000D03*
D17*
X99060000Y-147320000D03*
D16*
X88900000Y-147320000D03*
D15*
G36*
X92225000Y-144370000D02*
X92225000Y-150270000D01*
X85575000Y-147970000D01*
X85575000Y-146670000D01*
X92225000Y-144370000D01*
X92225000Y-144370000D01*
G37*
D14*
X86233000Y-146113500D03*
D15*
G36*
X82883000Y-144263500D02*
X89583000Y-144263500D01*
X86883000Y-147963500D01*
X85583000Y-147963500D01*
X82883000Y-144263500D01*
X82883000Y-144263500D01*
G37*
D13*
X90614500Y-145034000D03*
D12*
X97091500Y-144780000D03*
X98425000Y-144780000D03*
G04 #@! TD*
D18*
G04 #@! TO.C,SC24*
X364744000Y-127000000D03*
D17*
X354330000Y-127000000D03*
D16*
X344170000Y-127000000D03*
D15*
G36*
X347495000Y-124050000D02*
X347495000Y-129950000D01*
X340845000Y-127650000D01*
X340845000Y-126350000D01*
X347495000Y-124050000D01*
X347495000Y-124050000D01*
G37*
D14*
X341503000Y-125793500D03*
D15*
G36*
X338153000Y-123943500D02*
X344853000Y-123943500D01*
X342153000Y-127643500D01*
X340853000Y-127643500D01*
X338153000Y-123943500D01*
X338153000Y-123943500D01*
G37*
D13*
X345884500Y-124714000D03*
D12*
X352361500Y-124460000D03*
X353695000Y-124460000D03*
G04 #@! TD*
G04 #@! TO.C,SC25*
X170815000Y-180340000D03*
X172148500Y-180340000D03*
D13*
X178625500Y-180086000D03*
D14*
X183007000Y-179006500D03*
D15*
G36*
X186357000Y-180856500D02*
X179657000Y-180856500D01*
X182357000Y-177156500D01*
X183657000Y-177156500D01*
X186357000Y-180856500D01*
X186357000Y-180856500D01*
G37*
D16*
X180340000Y-177800000D03*
D15*
G36*
X177015000Y-180750000D02*
X177015000Y-174850000D01*
X183665000Y-177150000D01*
X183665000Y-178450000D01*
X177015000Y-180750000D01*
X177015000Y-180750000D01*
G37*
D17*
X170180000Y-177800000D03*
D18*
X159766000Y-177800000D03*
G04 #@! TD*
D12*
G04 #@! TO.C,SC26*
X354965000Y-114300000D03*
X353631500Y-114300000D03*
D13*
X347154500Y-114554000D03*
D14*
X342773000Y-115633500D03*
D15*
G36*
X339423000Y-113783500D02*
X346123000Y-113783500D01*
X343423000Y-117483500D01*
X342123000Y-117483500D01*
X339423000Y-113783500D01*
X339423000Y-113783500D01*
G37*
D16*
X345440000Y-116840000D03*
D15*
G36*
X348765000Y-113890000D02*
X348765000Y-119790000D01*
X342115000Y-117490000D01*
X342115000Y-116190000D01*
X348765000Y-113890000D01*
X348765000Y-113890000D01*
G37*
D17*
X355600000Y-116840000D03*
D18*
X366014000Y-116840000D03*
G04 #@! TD*
D12*
G04 #@! TO.C,SC27*
X98425000Y-134620000D03*
X97091500Y-134620000D03*
D13*
X90614500Y-134874000D03*
D14*
X86233000Y-135953500D03*
D15*
G36*
X82883000Y-134103500D02*
X89583000Y-134103500D01*
X86883000Y-137803500D01*
X85583000Y-137803500D01*
X82883000Y-134103500D01*
X82883000Y-134103500D01*
G37*
D16*
X88900000Y-137160000D03*
D15*
G36*
X92225000Y-134210000D02*
X92225000Y-140110000D01*
X85575000Y-137810000D01*
X85575000Y-136510000D01*
X92225000Y-134210000D01*
X92225000Y-134210000D01*
G37*
D17*
X99060000Y-137160000D03*
D18*
X109474000Y-137160000D03*
G04 #@! TD*
D12*
G04 #@! TO.C,SC28*
X352425000Y-104140000D03*
X351091500Y-104140000D03*
D13*
X344614500Y-104394000D03*
D14*
X340233000Y-105473500D03*
D15*
G36*
X336883000Y-103623500D02*
X343583000Y-103623500D01*
X340883000Y-107323500D01*
X339583000Y-107323500D01*
X336883000Y-103623500D01*
X336883000Y-103623500D01*
G37*
D16*
X342900000Y-106680000D03*
D15*
G36*
X346225000Y-103730000D02*
X346225000Y-109630000D01*
X339575000Y-107330000D01*
X339575000Y-106030000D01*
X346225000Y-103730000D01*
X346225000Y-103730000D01*
G37*
D17*
X353060000Y-106680000D03*
D18*
X363474000Y-106680000D03*
G04 #@! TD*
D12*
G04 #@! TO.C,SC29*
X200025000Y-175260000D03*
X198691500Y-175260000D03*
D13*
X192214500Y-175514000D03*
D14*
X187833000Y-176593500D03*
D15*
G36*
X184483000Y-174743500D02*
X191183000Y-174743500D01*
X188483000Y-178443500D01*
X187183000Y-178443500D01*
X184483000Y-174743500D01*
X184483000Y-174743500D01*
G37*
D16*
X190500000Y-177800000D03*
D15*
G36*
X193825000Y-174850000D02*
X193825000Y-180750000D01*
X187175000Y-178450000D01*
X187175000Y-177150000D01*
X193825000Y-174850000D01*
X193825000Y-174850000D01*
G37*
D17*
X200660000Y-177800000D03*
D18*
X211074000Y-177800000D03*
G04 #@! TD*
D22*
G04 #@! TO.C,SC30*
X119380000Y-120015000D03*
X119380000Y-121348500D03*
D21*
X119634000Y-127825500D03*
D14*
X120713500Y-132207000D03*
D15*
G36*
X118863500Y-135557000D02*
X118863500Y-128857000D01*
X122563500Y-131557000D01*
X122563500Y-132857000D01*
X118863500Y-135557000D01*
X118863500Y-135557000D01*
G37*
D16*
X121920000Y-129540000D03*
D15*
G36*
X118970000Y-126215000D02*
X124870000Y-126215000D01*
X122570000Y-132865000D01*
X121270000Y-132865000D01*
X118970000Y-126215000D01*
X118970000Y-126215000D01*
G37*
D20*
X121920000Y-119380000D03*
D19*
X121920000Y-108966000D03*
G04 #@! TD*
D18*
G04 #@! TO.C,SC31*
X155194000Y-177546000D03*
D17*
X144780000Y-177546000D03*
D16*
X134620000Y-177546000D03*
D15*
G36*
X137945000Y-174596000D02*
X137945000Y-180496000D01*
X131295000Y-178196000D01*
X131295000Y-176896000D01*
X137945000Y-174596000D01*
X137945000Y-174596000D01*
G37*
D14*
X131953000Y-176339500D03*
D15*
G36*
X128603000Y-174489500D02*
X135303000Y-174489500D01*
X132603000Y-178189500D01*
X131303000Y-178189500D01*
X128603000Y-174489500D01*
X128603000Y-174489500D01*
G37*
D13*
X136334500Y-175260000D03*
D12*
X142811500Y-175006000D03*
X144145000Y-175006000D03*
G04 #@! TD*
D19*
G04 #@! TO.C,SC32*
X177800000Y-112776000D03*
D20*
X177800000Y-123190000D03*
D16*
X177800000Y-133350000D03*
D15*
G36*
X174850000Y-130025000D02*
X180750000Y-130025000D01*
X178450000Y-136675000D01*
X177150000Y-136675000D01*
X174850000Y-130025000D01*
X174850000Y-130025000D01*
G37*
D14*
X176593500Y-136017000D03*
D15*
G36*
X174743500Y-139367000D02*
X174743500Y-132667000D01*
X178443500Y-135367000D01*
X178443500Y-136667000D01*
X174743500Y-139367000D01*
X174743500Y-139367000D01*
G37*
D21*
X175514000Y-131635500D03*
D22*
X175260000Y-125158500D03*
X175260000Y-123825000D03*
G04 #@! TD*
D18*
G04 #@! TO.C,SC33*
X109474000Y-127000000D03*
D17*
X99060000Y-127000000D03*
D16*
X88900000Y-127000000D03*
D15*
G36*
X92225000Y-124050000D02*
X92225000Y-129950000D01*
X85575000Y-127650000D01*
X85575000Y-126350000D01*
X92225000Y-124050000D01*
X92225000Y-124050000D01*
G37*
D14*
X86233000Y-125793500D03*
D15*
G36*
X82883000Y-123943500D02*
X89583000Y-123943500D01*
X86883000Y-127643500D01*
X85583000Y-127643500D01*
X82883000Y-123943500D01*
X82883000Y-123943500D01*
G37*
D13*
X90614500Y-124714000D03*
D12*
X97091500Y-124460000D03*
X98425000Y-124460000D03*
G04 #@! TD*
D19*
G04 #@! TO.C,SC34*
X190500000Y-114046000D03*
D20*
X190500000Y-124460000D03*
D16*
X190500000Y-134620000D03*
D15*
G36*
X187550000Y-131295000D02*
X193450000Y-131295000D01*
X191150000Y-137945000D01*
X189850000Y-137945000D01*
X187550000Y-131295000D01*
X187550000Y-131295000D01*
G37*
D14*
X189293500Y-137287000D03*
D15*
G36*
X187443500Y-140637000D02*
X187443500Y-133937000D01*
X191143500Y-136637000D01*
X191143500Y-137937000D01*
X187443500Y-140637000D01*
X187443500Y-140637000D01*
G37*
D21*
X188214000Y-132905500D03*
D22*
X187960000Y-126428500D03*
X187960000Y-125095000D03*
G04 #@! TD*
D19*
G04 #@! TO.C,SC35*
X245110000Y-131826000D03*
D20*
X245110000Y-142240000D03*
D16*
X245110000Y-152400000D03*
D15*
G36*
X242160000Y-149075000D02*
X248060000Y-149075000D01*
X245760000Y-155725000D01*
X244460000Y-155725000D01*
X242160000Y-149075000D01*
X242160000Y-149075000D01*
G37*
D14*
X243903500Y-155067000D03*
D15*
G36*
X242053500Y-158417000D02*
X242053500Y-151717000D01*
X245753500Y-154417000D01*
X245753500Y-155717000D01*
X242053500Y-158417000D01*
X242053500Y-158417000D01*
G37*
D21*
X242824000Y-150685500D03*
D22*
X242570000Y-144208500D03*
X242570000Y-142875000D03*
G04 #@! TD*
D12*
G04 #@! TO.C,SC36*
X98425000Y-114300000D03*
X97091500Y-114300000D03*
D13*
X90614500Y-114554000D03*
D14*
X86233000Y-115633500D03*
D15*
G36*
X82883000Y-113783500D02*
X89583000Y-113783500D01*
X86883000Y-117483500D01*
X85583000Y-117483500D01*
X82883000Y-113783500D01*
X82883000Y-113783500D01*
G37*
D16*
X88900000Y-116840000D03*
D15*
G36*
X92225000Y-113890000D02*
X92225000Y-119790000D01*
X85575000Y-117490000D01*
X85575000Y-116190000D01*
X92225000Y-113890000D01*
X92225000Y-113890000D01*
G37*
D17*
X99060000Y-116840000D03*
D18*
X109474000Y-116840000D03*
G04 #@! TD*
D12*
G04 #@! TO.C,SC37*
X98425000Y-104140000D03*
X97091500Y-104140000D03*
D13*
X90614500Y-104394000D03*
D14*
X86233000Y-105473500D03*
D15*
G36*
X82883000Y-103623500D02*
X89583000Y-103623500D01*
X86883000Y-107323500D01*
X85583000Y-107323500D01*
X82883000Y-103623500D01*
X82883000Y-103623500D01*
G37*
D16*
X88900000Y-106680000D03*
D15*
G36*
X92225000Y-103730000D02*
X92225000Y-109630000D01*
X85575000Y-107330000D01*
X85575000Y-106030000D01*
X92225000Y-103730000D01*
X92225000Y-103730000D01*
G37*
D17*
X99060000Y-106680000D03*
D18*
X109474000Y-106680000D03*
G04 #@! TD*
M02*
